<?xml version="1.0" standalone="no"?>
<!DOCTYPE svg PUBLIC "-//W3C//DTD SVG 20010904//EN"
 "http://www.w3.org/TR/2001/REC-SVG-20010904/DTD/svg10.dtd">
<svg version="1.0" xmlns="http://www.w3.org/2000/svg"
 width="1280.000000pt" height="687.000000pt" viewBox="0 0 1280.000000 687.000000"
 preserveAspectRatio="xMidYMid meet">
<metadata>
Created by potrace 1.15, written by Peter Selinger 2001-2017
</metadata>
<g transform="translate(0.000000,687.000000) scale(0.100000,-0.100000)"
fill="#000000" stroke="none">
<path d="M3524 6860 c-155 -13 -241 -45 -953 -357 -206 -90 -376 -162 -377
-160 -2 2 -7 26 -10 53 -10 87 -21 104 -65 104 -79 0 -219 -70 -219 -110 0
-10 12 -28 26 -39 26 -20 26 -22 14 -67 -18 -62 -30 -67 -315 -119 -151 -28
-298 -82 -513 -192 -111 -57 -209 -103 -216 -103 -29 0 -170 -81 -196 -112
-15 -18 -149 -116 -298 -217 -291 -197 -352 -243 -352 -269 0 -9 34 -69 76
-134 42 -66 75 -120 73 -121 -2 -2 -36 -13 -74 -25 -147 -45 -141 -72 26 -120
96 -27 141 -34 284 -42 94 -6 211 -17 261 -25 56 -9 159 -15 266 -15 187 0
213 6 220 53 2 15 11 23 30 25 22 3 42 -11 105 -70 76 -70 175 -132 253 -157
19 -6 70 -15 112 -21 207 -26 419 54 560 209 63 69 85 75 166 42 45 -19 97
-20 1537 -25 1120 -4 1553 -9 1745 -20 394 -23 574 -29 617 -22 29 5 44 15 57
37 16 27 21 29 77 29 60 0 62 -1 125 -58 126 -114 268 -176 430 -188 204 -15
401 62 551 216 l60 61 139 24 c275 47 557 118 587 148 16 16 18 28 13 86 -11
112 -47 342 -66 416 -23 88 -198 596 -212 612 -6 7 -29 18 -52 24 -22 6 -48
18 -56 25 -8 8 -24 21 -34 28 -19 13 -19 15 -3 40 l17 26 66 -25 c37 -14 87
-25 111 -25 49 0 75 20 135 108 25 36 28 46 17 53 -8 5 -113 9 -234 9 l-220 0
-43 -29 c-23 -16 -76 -46 -116 -67 l-74 -38 -116 27 c-219 52 -427 80 -596 80
-85 0 -198 -5 -250 -12 -111 -13 -212 -4 -809 80 -309 43 -371 49 -408 40 -41
-11 -47 -9 -130 33 -268 134 -567 231 -850 277 -106 17 -185 21 -463 24 -184
2 -381 0 -436 -5z m917 -34 c127 -22 135 -25 119 -55 -9 -17 -17 -21 -38 -17
-252 54 -700 70 -978 34 -88 -11 -93 -10 -123 12 -18 12 -30 24 -28 26 16 16
177 22 532 20 339 -2 428 -5 516 -20z m-1014 -52 c-7 -7 -64 22 -72 37 -4 6
12 1 35 -11 23 -12 40 -24 37 -26z m-62 14 c14 -6 25 -14 25 -17 0 -4 -28 -22
-62 -40 -160 -87 -326 -193 -466 -300 -84 -64 -179 -135 -211 -157 -92 -65
-290 -123 -418 -124 -61 0 -221 26 -235 39 -29 26 58 91 121 91 16 0 39 8 52
19 37 28 99 58 439 206 383 168 689 294 712 295 9 0 29 -5 43 -12z m930 -13
c340 -40 604 -113 875 -243 102 -48 112 -56 90 -62 -51 -16 -79 -9 -217 54
-222 102 -558 214 -578 194 -4 -3 20 -55 53 -115 71 -129 107 -200 116 -230 6
-18 3 -23 -11 -23 -13 0 -41 41 -96 140 -141 251 -141 251 -378 276 -194 20
-458 7 -628 -32 -171 -39 -370 -188 -707 -531 l-171 -174 -126 33 c-70 18
-127 36 -127 39 0 4 14 9 32 13 57 11 191 83 275 148 564 432 674 496 883 518
130 14 580 11 715 -5z m315 6 c0 -11 -29 -35 -35 -29 -10 9 7 38 21 38 8 0 14
-4 14 -9z m234 -58 c155 -50 301 -110 440 -180 88 -45 90 -46 63 -56 -24 -8
-49 1 -183 63 -152 70 -301 123 -476 171 -79 21 -86 25 -76 42 13 26 52 19
232 -40z m-678 26 c139 -13 178 -24 214 -57 37 -33 212 -334 202 -344 -26 -26
-1463 -203 -1512 -186 -7 2 47 10 121 16 344 32 1362 162 1376 176 6 6 -66
133 -139 247 -58 92 -95 112 -239 130 -107 13 -464 6 -568 -11 -84 -14 -197
-59 -296 -116 -89 -52 -269 -183 -262 -190 2 -3 46 26 97 65 105 79 245 159
341 195 97 36 208 48 460 48 245 -1 341 -12 391 -46 20 -13 64 -75 119 -166
l87 -145 -26 -8 c-25 -6 -457 -64 -887 -117 -290 -36 -630 -68 -638 -61 -4 4
4 42 17 84 28 87 32 144 9 126 -8 -8 -10 -16 -4 -23 6 -7 -2 -47 -23 -111
l-32 -100 -39 -6 c-22 -4 -64 -9 -93 -11 l-54 -5 119 121 c126 128 102 112
-63 -44 -55 -52 -28 -24 60 63 166 164 313 289 427 363 107 69 202 95 439 117
83 8 295 6 396 -4z m428 -70 c159 -47 340 -116 471 -181 136 -67 89 -57 -67
15 -139 63 -306 126 -438 166 -36 10 -59 20 -51 20 8 1 46 -8 85 -20z m-5
-159 c45 -88 78 -160 72 -160 -5 0 -14 15 -20 33 -6 17 -42 89 -80 160 -38 70
-65 127 -61 127 4 0 44 -72 89 -160z m25 129 c132 -39 504 -194 493 -206 -5
-4 -420 -84 -422 -80 -6 8 -155 301 -155 303 0 7 12 4 84 -17z m-1574 -107
c-13 -9 -97 -73 -185 -142 -194 -152 -230 -177 -320 -223 -99 -50 -169 -69
-227 -61 -27 4 -50 10 -53 13 -2 4 33 13 78 20 126 19 252 65 329 119 36 26
139 102 227 170 89 67 165 122 169 121 4 0 -4 -8 -18 -17z m2563 -39 c7 -5 12
-15 12 -23 0 -18 2 -18 425 -65 179 -20 329 -37 334 -38 5 -2 -62 -15 -150
-30 -87 -15 -280 -49 -429 -77 -148 -27 -315 -56 -370 -64 -112 -17 -675 -70
-679 -64 -13 15 -87 191 -83 195 3 3 140 31 304 63 339 65 466 95 472 111 4
13 143 5 164 -8z m252 -34 c261 -35 529 -69 565 -70 31 -2 32 -2 7 -6 -29 -5
-788 75 -797 84 -10 9 25 22 50 17 14 -2 93 -13 175 -25z m-3696 -10 c12 -35
15 -118 5 -143 -3 -9 -15 -16 -27 -16 -43 0 -180 44 -205 65 -26 22 -26 24 -9
43 19 21 101 60 152 73 59 14 72 11 84 -22z m6095 -28 c3 -5 -14 -36 -39 -69
-67 -92 -84 -92 -290 -9 -167 67 -166 75 8 80 72 1 173 4 224 5 50 1 94 -2 97
-7z m-1157 -36 c163 -21 283 -46 613 -126 157 -39 295 -72 308 -75 22 -4 40
-29 29 -40 -7 -7 -218 34 -547 109 l-275 62 -305 0 c-312 -1 -340 -3 -729 -56
-165 -22 -229 -24 -96 -2 72 11 94 19 110 38 16 19 43 29 145 49 271 55 530
69 747 41z m693 -10 c-22 -21 -170 -86 -170 -74 0 10 155 89 174 89 6 0 4 -7
-4 -15z m60 -19 l32 -13 -30 -34 c-27 -30 -34 -33 -78 -31 -27 2 -62 5 -79 9
-28 5 -26 7 45 44 41 21 76 38 76 39 1 0 16 -6 34 -14z m-3167 -123 c35 -71
44 -99 35 -104 -17 -10 -522 -42 -1083 -69 -115 -6 -298 -14 -405 -20 -107 -5
-274 -12 -370 -16 l-175 -6 43 44 43 45 137 12 c644 57 1542 165 1667 201 57
16 59 14 108 -87z m3232 80 c-4 -10 -10 -26 -12 -35 -6 -20 -20 -23 -42 -9
-11 7 -10 13 5 35 22 30 61 37 49 9z m-1715 -2 c0 -5 -6 -13 -12 -19 -18 -15
-274 -52 -350 -51 l-63 1 100 19 c103 20 304 57 318 58 4 1 7 -3 7 -8z m-4206
-37 c-1 -16 -7 -48 -13 -71 -10 -38 -15 -43 -41 -43 -30 0 -37 8 -22 26 5 5
19 35 32 67 24 60 46 71 44 21z m5176 26 c52 -6 217 -37 365 -70 149 -33 328
-70 399 -83 81 -15 131 -28 136 -38 10 -17 77 -261 85 -310 l7 -36 -109 -16
c-59 -9 -162 -24 -229 -33 l-120 -16 -105 104 c-112 112 -192 162 -342 215
-106 37 -282 44 -391 14 -83 -23 -173 -65 -246 -114 -97 -66 -213 -196 -263
-294 -9 -17 -23 -38 -32 -46 -18 -18 1 -16 -550 -67 -236 -22 -545 -52 -686
-65 -140 -14 -299 -28 -352 -32 l-98 -6 10 24 c6 13 44 109 84 214 68 172 78
192 110 212 19 12 42 32 51 45 20 29 21 87 0 116 -8 12 -14 32 -12 44 3 22 19
24 618 99 338 42 710 89 825 103 351 45 643 57 845 36z m-5090 -16 c0 -4 -56
-34 -65 -34 -6 0 -7 35 0 42 5 5 65 -2 65 -8z m5755 -28 c44 -8 88 -18 98 -21
19 -8 24 -27 5 -20 -7 2 -53 14 -103 25 -82 20 -113 30 -89 30 5 0 45 -6 89
-14z m-1842 -23 c-7 -2 -21 -2 -30 0 -10 3 -4 5 12 5 17 0 24 -2 18 -5z m-153
-10 c0 -8 -609 -87 -616 -80 -2 2 101 22 228 44 217 37 388 53 388 36z m63 0
c-7 -2 -21 -2 -30 0 -10 3 -4 5 12 5 17 0 24 -2 18 -5z m-4021 -67 c54 -8 91
-9 97 -3 12 12 70 0 373 -75 231 -57 277 -75 246 -94 -6 -4 -8 -3 -5 3 4 6
-12 13 -39 17 -24 3 -111 22 -192 41 -224 55 -293 65 -472 72 -238 8 -387 -23
-605 -126 -160 -76 -330 -201 -743 -545 -152 -127 -225 -181 -251 -187 -62
-15 -161 -8 -161 10 0 8 85 74 249 194 126 91 153 107 150 90 -5 -29 2 -42 19
-36 71 26 387 271 459 357 19 23 72 56 161 100 215 108 304 139 502 176 118
22 108 22 212 6z m1156 -13 c-10 -2 -26 -2 -35 0 -10 3 -2 5 17 5 19 0 27 -2
18 -5z m1997 -18 c-134 -25 -215 -29 -250 -16 -14 6 9 11 70 16 50 4 117 11
150 15 33 4 83 8 110 8 37 0 15 -6 -80 -23z m-2946 -35 c60 -8 424 -89 469
-105 8 -3 -35 -57 -110 -140 -67 -74 -125 -135 -128 -135 -3 0 -35 24 -70 54
-250 212 -538 253 -817 116 -59 -29 -101 -59 -148 -106 -146 -146 -215 -292
-234 -497 -5 -48 -10 -89 -12 -92 -2 -2 -87 -8 -189 -14 -286 -17 -340 -22
-340 -34 0 -6 42 -54 92 -106 l93 -96 -60 -3 c-59 -3 -60 -3 -95 37 -47 54
-141 123 -159 116 -18 -7 -51 3 -51 16 0 6 8 5 21 -1 11 -7 23 -9 26 -6 4 3
-51 33 -120 66 -70 34 -127 65 -127 70 0 6 31 10 69 10 38 0 82 3 99 6 20 4
113 75 264 201 364 304 560 449 703 520 139 69 243 104 384 129 82 14 306 11
440 -6z m2697 7 c4 -4 5 -9 3 -11 -13 -13 -781 -82 -1184 -106 -279 -17 -695
-18 -793 -1 -45 7 -84 17 -87 20 -2 4 132 13 298 19 166 7 383 17 482 22 605
32 961 52 1040 60 103 9 230 8 241 -3z m74 -40 c0 -56 -220 -644 -244 -653 -6
-2 -159 -12 -341 -23 -181 -11 -658 -39 -1058 -62 -805 -47 -747 -49 -747 22
0 51 -44 181 -90 265 l-39 70 56 63 c30 34 53 64 51 67 -5 4 -96 -97 -112
-123 -4 -7 11 -44 33 -85 48 -88 78 -177 87 -259 8 -71 19 -80 95 -74 72 6
253 17 1179 70 825 47 937 55 1510 110 921 89 1070 102 1059 91 -4 -4 -106
-15 -779 -81 -921 -90 -822 -83 -2305 -165 -401 -23 -733 -44 -737 -48 -3 -4
-18 -65 -32 -137 -43 -213 -39 -205 -92 -205 -25 0 -44 3 -42 8 65 126 88 213
88 337 0 162 -54 301 -161 419 -110 120 -237 187 -394 208 -381 51 -716 -241
-719 -627 -1 -109 14 -174 65 -284 22 -46 39 -85 39 -87 0 -2 -9 -4 -19 -4
-41 0 -87 65 -125 175 l-36 105 10 97 c6 54 17 123 25 155 82 327 348 542 670
542 184 0 347 -66 505 -206 l54 -48 71 70 c39 39 73 68 76 65 3 -3 41 33 83
80 43 48 89 88 103 91 14 4 49 0 77 -9 163 -51 456 -50 1216 3 309 22 642 54
785 74 133 20 135 20 135 -7z m2355 -43 c145 -35 334 -154 422 -265 55 -71 44
-70 293 -34 159 22 241 30 215 19 -5 -2 -102 -17 -214 -34 -113 -16 -208 -33
-213 -38 -5 -5 4 -44 20 -88 35 -95 59 -207 68 -327 5 -75 4 -91 -11 -107 -10
-11 -20 -47 -26 -87 -12 -93 -11 -93 9 -93 33 0 243 71 391 131 79 32 148 59
152 59 5 0 9 -18 9 -40 0 -49 5 -47 -225 -105 -156 -39 -473 -101 -480 -93 -2
2 12 35 31 73 97 198 97 394 -2 594 -77 156 -220 281 -394 343 -58 20 -82 23
-220 22 -141 0 -161 -2 -222 -26 -106 -40 -176 -86 -264 -174 -130 -128 -193
-282 -194 -465 0 -122 50 -280 122 -381 l19 -28 -59 0 c-69 0 -57 -17 -116
170 -49 156 -57 223 -40 335 18 120 25 141 75 227 119 205 262 331 456 399
104 37 275 42 398 13z m-2315 -55 c0 -14 -9 -38 -21 -53 -23 -30 -59 -52 -59
-37 0 5 9 13 20 16 31 10 54 62 41 92 -16 34 -13 52 4 29 8 -11 15 -32 15 -47z
m-44 -47 c-24 -24 -28 -9 -9 34 l17 39 4 -29 c2 -17 -3 -35 -12 -44z m2322 12
c309 -64 532 -330 532 -635 0 -304 -207 -567 -506 -643 -79 -20 -241 -21 -319
-1 -188 48 -360 185 -440 350 -69 141 -88 302 -52 435 94 355 432 567 785 494z
m1043 -273 c6 -41 21 -104 35 -139 25 -68 30 -102 15 -102 -5 0 -12 8 -15 18
-57 194 -86 307 -82 317 2 7 -2 42 -9 77 -8 34 -17 74 -19 88 -3 14 10 -22 29
-80 20 -58 40 -138 46 -179z m-5721 226 c0 -2 -10 -12 -22 -23 l-23 -19 19 23
c18 21 26 27 26 19z m-1520 -12 c0 -5 -173 -155 -180 -155 -12 0 3 90 16 101
8 7 45 22 82 35 72 24 82 26 82 19z m935 -20 c195 -50 373 -209 435 -390 136
-396 -133 -806 -547 -832 -121 -8 -196 8 -312 64 -208 100 -337 294 -348 523
-10 200 70 382 224 511 61 51 167 106 241 123 78 19 234 20 307 1z m-1162
-113 l-18 -27 -3 28 c-2 19 3 33 15 42 26 20 30 -8 6 -43z m24 -29 c-3 -10 -5
-4 -5 12 0 17 2 24 5 18 2 -7 2 -21 0 -30z m-70 -5 c-3 -7 -5 -2 -5 12 0 14 2
19 5 13 2 -7 2 -19 0 -25z m7457 5 c2 -10 18 -64 35 -119 40 -131 48 -188 30
-211 -49 -60 -339 -233 -390 -233 -17 0 -19 8 -19 74 0 97 -24 228 -62 343
-17 52 -29 95 -27 97 3 3 379 62 416 65 6 1 14 -7 17 -16z m-7414 -23 c0 -19
-98 -93 -177 -134 -32 -16 -33 -16 -33 4 0 15 14 27 57 45 31 14 53 28 50 32
-4 3 -13 0 -22 -7 -8 -7 -21 -10 -29 -7 -14 6 -210 -122 -356 -233 -90 -68
-160 -113 -166 -107 -8 8 74 69 271 203 258 176 325 218 331 211 3 -3 -16 -20
-42 -37 -27 -18 -40 -29 -29 -24 11 4 29 7 41 8 11 1 37 16 58 34 43 38 46 38
46 12z m5534 -227 c-26 -112 -28 -201 -6 -294 12 -47 30 -110 41 -140 12 -30
21 -57 21 -61 0 -5 -161 -8 -359 -8 l-358 0 -344 169 c-189 93 -368 177 -397
187 -48 15 -88 16 -380 11 -333 -6 -1283 -48 -1492 -67 -199 -17 -331 -65
-416 -151 -26 -27 -43 -49 -37 -49 6 0 18 11 26 24 21 32 110 89 180 115 106
39 223 51 732 76 835 40 1053 48 1215 43 l155 -5 103 -46 c158 -72 605 -298
600 -303 -5 -4 -3130 14 -3134 19 -1 1 10 58 25 126 21 100 30 126 46 132 11
5 232 20 490 34 259 14 637 34 840 45 772 42 928 55 2010 164 182 19 358 34
391 35 l61 1 -13 -57z m2006 -72 c-32 -60 -270 -211 -404 -256 -84 -28 -99
-30 -94 -13 3 7 21 13 41 14 72 5 252 109 397 228 59 50 77 57 60 27z m29
-120 c6 -47 8 -88 4 -91 -17 -15 -334 -136 -433 -166 l-105 -32 -3 39 c-2 21
1 46 6 55 5 9 40 26 79 39 121 38 262 118 378 214 27 22 52 37 56 33 4 -4 12
-45 18 -91z m-8121 -88 c103 -46 122 -65 122 -120 l0 -43 -50 0 -50 0 -77 116
c-75 112 -77 117 -58 130 18 14 20 12 28 -16 7 -27 19 -37 85 -67z m822 -22
c-18 -11 -488 -37 -497 -27 -3 3 -4 8 -2 10 5 5 311 23 429 24 53 1 79 -2 70
-7z m54 -114 c16 -48 27 -90 24 -93 -4 -3 -89 -8 -191 -11 l-186 -6 -76 81
c-42 45 -77 85 -78 89 -2 8 354 31 438 29 l40 -1 29 -88z m-636 7 c17 -11 22
-24 22 -55 l0 -40 -57 3 -58 3 -3 49 c-2 32 1 52 10 58 16 10 55 2 86 -18z
m73 -60 l24 -26 -30 4 c-22 2 -31 9 -33 26 -4 29 9 28 39 -4z m-288 -1 c-7 -2
-21 -2 -30 0 -10 3 -4 5 12 5 17 0 24 -2 18 -5z m108 -25 c9 -15 25 -18 112
-18 57 0 107 -4 113 -9 5 -6 132 -11 290 -13 223 -2 284 -6 298 -17 9 -8 13
-18 8 -23 -4 -4 -221 -9 -482 -10 -407 -3 -481 -1 -520 12 -57 20 -61 47 -10
72 19 10 29 18 22 18 -28 0 -72 -31 -72 -51 0 -16 -5 -20 -27 -17 -45 5 -33
31 22 53 70 27 231 29 246 3z m5373 -19 c360 0 629 -4 613 -9 -23 -7 -2333 3
-3282 14 -154 1 239 1 874 -1 635 -1 1443 -3 1795 -4z m-1134 -20 c861 -6
1614 -14 1675 -17 95 -6 110 -9 113 -25 2 -10 -4 -29 -12 -42 -16 -25 -17 -25
-189 -24 -94 0 -264 6 -377 14 -151 11 -613 17 -1765 25 -858 6 -1570 13
-1582 15 -25 6 -31 33 -11 53 15 15 152 15 2148 1z m-3400 -78 c0 -41 -23 -46
-219 -45 -119 1 -225 7 -292 17 -59 10 -140 17 -180 17 -41 0 -105 3 -144 8
-48 5 33 9 260 12 182 3 385 6 453 8 113 2 122 1 122 -17z"/>
<path d="M4594 5986 c-25 -19 -9 -50 29 -54 30 -4 46 30 27 53 -16 19 -31 19
-56 1z m51 -26 c0 -19 -35 -26 -46 -9 -4 7 -5 17 -2 22 8 14 48 3 48 -13z"/>
<path d="M2667 5730 c-36 -28 -32 -60 8 -79 52 -25 265 16 265 51 -1 36 -18
42 -132 46 -105 4 -115 3 -141 -18z m255 -8 c9 -9 9 -15 1 -23 -13 -13 -104
-36 -173 -43 -43 -4 -47 -3 -21 3 61 16 60 51 -3 71 -23 7 -4 9 77 6 64 -1
112 -7 119 -14z m-258 -17 c-4 -8 -1 -22 6 -30 11 -13 10 -14 -4 -9 -16 6 -22
35 -9 47 10 11 13 8 7 -8z m91 -22 c-20 -14 -44 -17 -69 -7 -44 17 12 47 58
31 27 -9 28 -11 11 -24z"/>
<path d="M6880 5807 c-91 -31 -156 -71 -220 -136 -178 -182 -206 -473 -66
-684 214 -322 675 -323 897 -1 73 107 107 283 79 417 -37 180 -193 353 -368
407 -92 28 -235 27 -322 -3z m280 -2 c177 -47 316 -174 376 -344 19 -54 24
-86 24 -181 0 -109 -2 -119 -34 -193 -60 -136 -162 -238 -296 -293 -87 -36
-241 -45 -322 -19 -195 63 -340 218 -379 402 -45 218 64 463 256 573 108 62
264 85 375 55z"/>
<path d="M6960 5431 c-79 -41 -106 -149 -57 -222 29 -43 91 -79 138 -79 92 0
175 89 166 179 -12 113 -143 178 -247 122z m158 -11 c65 -40 92 -132 57 -200
-28 -55 -113 -89 -174 -69 -98 31 -142 140 -88 220 44 65 140 88 205 49z"/>
<path d="M1623 5745 c-229 -62 -383 -263 -383 -500 0 -134 43 -244 134 -342
124 -133 288 -190 463 -159 217 38 375 192 420 411 53 258 -115 520 -378 590
-68 18 -188 18 -256 0z m343 -49 c212 -105 322 -328 273 -558 -28 -132 -137
-270 -262 -331 -298 -147 -644 18 -712 340 -18 85 -18 111 0 196 21 100 57
170 120 236 71 74 118 107 197 137 55 21 77 23 184 21 118 -2 122 -3 200 -41z"/>
<path d="M1700 5389 c-40 -16 -80 -60 -91 -102 -27 -100 42 -187 147 -187 90
0 154 63 154 151 0 105 -111 177 -210 138z m146 -34 c63 -48 69 -136 13 -200
-53 -61 -148 -60 -206 2 -29 30 -33 41 -33 90 0 51 3 58 39 94 36 36 43 39 96
39 46 0 65 -5 91 -25z"/>
<path d="M10475 6733 c-133 -8 -394 -35 -422 -44 -39 -12 -119 -98 -244 -260
l-90 -116 -152 -6 c-158 -7 -264 -24 -316 -52 -30 -15 -31 -15 -61 17 -25 27
-29 39 -25 65 5 29 1 35 -35 62 -53 38 -126 54 -186 41 -52 -12 -115 -49 -138
-82 -15 -21 -14 -24 12 -51 65 -70 170 -86 262 -40 l53 26 24 -29 c40 -48 42
-57 26 -96 -13 -32 -22 -39 -67 -52 -81 -24 -129 -89 -164 -223 -15 -61 -17
-127 -16 -613 0 -341 4 -556 10 -575 6 -17 25 -38 45 -50 30 -18 55 -20 219
-23 l185 -4 28 28 c16 15 31 41 34 56 l6 28 1332 0 1333 0 12 -35 c6 -19 23
-44 38 -56 26 -20 36 -21 212 -17 161 3 189 6 217 23 18 10 35 26 39 34 16 39
22 382 15 766 -10 453 -11 464 -69 570 -28 51 -71 83 -125 94 -24 5 -37 16
-50 43 -16 33 -17 40 -4 65 8 15 24 36 35 46 18 17 21 16 73 -8 66 -30 128
-32 189 -4 49 22 90 56 90 74 0 16 -59 70 -99 90 -98 50 -286 -12 -267 -88 4
-18 -2 -33 -27 -61 -31 -37 -33 -37 -62 -22 -55 27 -170 47 -320 54 l-149 7
-54 70 c-163 212 -268 322 -289 302 -2 -3 5 -8 17 -12 44 -14 284 -312 376
-467 l54 -91 -44 -47 c-68 -72 -130 -208 -162 -350 -6 -30 -12 -44 -13 -30 -1
38 35 199 58 260 12 30 21 56 21 58 0 1 -33 2 -72 3 l-73 1 65 14 c116 24 132
42 110 124 -26 96 -132 281 -164 286 -21 3 -22 4 20 -57 89 -131 146 -284 113
-304 -53 -33 -320 -65 -634 -75 -216 -7 -262 -6 -271 6 -6 7 -24 14 -40 14
-16 0 -73 2 -128 3 -73 1 -100 -1 -104 -11 -4 -10 -69 -12 -321 -10 -174 2
-296 5 -271 8 37 4 25 7 -70 18 -123 14 -226 37 -249 55 -12 10 -13 9 -6 -2 5
-9 4 -12 -3 -7 -27 17 63 214 162 354 36 51 66 94 66 96 0 2 28 31 63 66 l62
64 145 13 c242 21 643 27 885 14 331 -19 369 -24 416 -61 21 -18 39 -38 39
-45 0 -8 9 -17 20 -20 11 -3 20 -11 20 -16 0 -20 59 -96 74 -96 9 0 16 3 16 6
0 3 -36 47 -80 96 -44 50 -90 104 -102 121 -21 30 -26 31 -127 43 -212 23
-381 31 -626 29 -137 -1 -272 -3 -300 -5z m834 -28 c85 -8 159 -19 165 -26 8
-8 1 -10 -29 -5 -167 25 -294 30 -670 30 -291 -1 -444 -5 -527 -16 -65 -7
-118 -10 -118 -6 0 4 3 8 8 8 4 0 48 5 97 11 252 30 768 32 1074 4z m-1314
-125 c-53 -61 -93 -115 -90 -121 4 -5 1 -8 -6 -7 -6 2 -14 -3 -17 -11 -3 -9 0
-11 8 -6 6 4 0 -11 -15 -34 -34 -51 -44 -54 -15 -3 l22 37 -25 -29 c-34 -39
-112 -190 -130 -251 -25 -85 -5 -108 117 -131 l71 -13 -73 1 c-39 1 -74 -1
-77 -4 -3 -2 4 -30 15 -62 23 -64 50 -186 49 -219 0 -12 -11 15 -25 61 -34
118 -90 228 -141 284 l-45 47 48 82 c92 158 322 446 378 473 17 9 35 16 39 16
4 0 -35 -50 -88 -110z m-910 -169 c50 -23 83 -57 68 -72 -8 -8 -19 0 -37 24
-28 36 -61 53 -72 35 -4 -5 13 -29 36 -53 l43 -43 -44 -23 c-65 -33 -151 -31
-213 5 -74 43 -72 63 13 118 37 23 56 28 105 28 38 0 76 -8 101 -19z m3643
-14 c61 -40 68 -60 35 -91 -33 -31 -103 -56 -152 -56 -50 1 -127 42 -123 65 3
17 2 17 -13 5 -9 -8 -46 -54 -83 -102 l-65 -88 -46 1 -46 1 43 9 c29 5 51 17
65 36 67 86 140 163 148 157 12 -7 59 34 59 52 0 30 -24 23 -60 -16 -21 -23
-41 -37 -44 -32 -12 20 7 42 57 67 71 36 164 33 225 -8z m-975 -26 c27 -46 14
-38 -18 12 -16 23 -22 37 -14 30 8 -6 22 -25 32 -42z m-2590 -84 c48 -57 93
-111 100 -121 6 -9 32 -20 57 -25 l45 -9 -47 -1 -46 -1 -81 104 c-44 57 -95
115 -113 130 -20 15 -27 26 -18 26 9 0 55 -47 103 -103z m3357 78 c-13 -14
-26 -23 -28 -20 -7 7 29 45 41 45 6 0 0 -11 -13 -25z m-2723 -94 c-23 -44 -43
-78 -45 -76 -4 3 43 99 66 133 28 43 20 21 -21 -57z m1993 39 c6 -11 8 -20 6
-20 -3 0 -10 9 -16 20 -6 11 -8 20 -6 20 3 0 10 -9 16 -20z m-2091 -22 c0 -7
-22 -47 -48 -88 l-47 -75 -109 2 c-82 2 -112 6 -124 18 -13 13 -13 15 -1 16
130 6 192 18 229 42 23 15 41 31 41 36 0 9 -73 21 -134 21 -40 0 -181 -26
-198 -36 -4 -3 -1 -21 7 -40 14 -35 14 -35 -8 -29 -25 8 -67 50 -67 69 0 18
37 33 127 50 140 28 333 35 332 14z m2430 2 c108 -12 231 -45 231 -63 -1 -20
-43 -64 -69 -72 -21 -6 -23 -5 -16 11 4 11 8 28 9 39 1 17 -5 20 -39 18 -27
-2 -34 0 -21 5 34 14 -114 36 -190 28 -38 -4 -71 -9 -74 -12 -10 -11 64 -64
95 -69 16 -2 66 -7 110 -11 69 -5 77 -8 61 -19 -10 -8 -52 -16 -94 -20 -43 -3
-90 -8 -107 -10 -29 -4 -32 0 -77 80 -27 47 -48 89 -48 95 0 13 107 13 229 0z
m19 -80 c6 -16 9 -30 7 -30 -5 0 -35 56 -35 65 0 15 19 -8 28 -35z m-2678 22
c0 -5 -7 -17 -16 -28 -8 -10 -14 -14 -11 -9 2 6 7 18 10 28 7 17 17 23 17 9z
m136 -7 c-38 -38 -145 -62 -132 -29 3 9 6 20 6 24 0 5 28 11 63 13 34 2 66 4
70 5 5 1 2 -5 -7 -13z m-236 -5 c-34 -11 -60 -11 -35 0 11 5 29 8 40 8 16 0
15 -2 -5 -8z m2742 -7 c27 -24 22 -33 -17 -33 -41 0 -99 26 -90 40 10 16 87
11 107 -7z m-2681 -12 c-9 -16 -50 -31 -87 -31 -26 0 -14 30 14 36 15 3 32 7
37 9 6 2 18 4 28 4 14 1 16 -3 8 -18z m2795 8 c28 -7 44 -17 44 -27 0 -12 -9
-14 -47 -8 -42 6 -62 18 -63 39 0 10 13 9 66 -4z m51 5 c-3 -3 -12 -4 -19 -1
-8 3 -5 6 6 6 11 1 17 -2 13 -5z m133 -76 c0 -5 -13 -8 -30 -8 -35 0 -36 2
-13 36 l16 26 13 -24 c7 -12 13 -26 14 -30z m-3172 14 c14 -21 13 -22 -22 -22
-34 0 -35 1 -24 25 13 29 25 28 46 -3z m233 -42 c69 -5 138 -14 152 -21 59
-27 153 -211 187 -367 10 -48 26 -166 35 -261 16 -179 25 -226 25 -130 0 211
-44 537 -85 635 l-15 37 112 -7 c102 -6 650 -25 739 -26 33 0 37 -3 43 -32 9
-45 64 -126 97 -144 16 -8 39 -12 53 -8 37 9 87 68 107 126 l18 53 173 7 c95
4 292 12 437 18 145 6 266 9 268 7 2 -2 -8 -40 -21 -83 -36 -112 -56 -266 -61
-466 l-4 -173 14 145 c18 187 40 314 66 392 31 96 89 207 129 248 32 34 41 38
105 44 39 4 149 7 245 7 193 1 229 -6 269 -57 28 -36 54 -96 72 -164 18 -72
20 -660 1 -702 -11 -26 -40 -38 -204 -84 -27 -8 -27 -25 2 -121 l27 -91 -29
-4 c-26 -4 -32 1 -59 49 -37 64 -80 99 -139 112 -107 23 -404 35 -862 36 -336
0 -479 3 -482 11 -12 31 13 33 484 44 502 11 818 25 829 36 3 4 -24 4 -62 0
-74 -7 -1229 -37 -1234 -32 -2 2 18 39 45 82 82 132 235 404 231 408 -2 3 -64
-99 -137 -224 -73 -126 -145 -239 -159 -250 -28 -22 -111 -28 -156 -11 -18 7
-63 75 -163 245 -76 130 -140 234 -142 231 -3 -2 58 -111 136 -242 77 -131
139 -239 138 -240 -2 -3 -1143 26 -1221 31 -60 4 -70 3 -40 -4 22 -4 231 -13
465 -19 786 -20 810 -21 810 -41 0 -16 -32 -18 -512 -23 -665 -7 -846 -22
-908 -73 -16 -14 -46 -51 -68 -83 l-39 -58 90 -7 c50 -3 286 -5 526 -4 l436 2
-350 6 c-192 4 -351 7 -353 8 -2 1 4 12 12 24 9 12 16 28 16 34 0 19 -52 64
-74 64 -29 -1 -60 -26 -50 -41 4 -8 3 -10 -4 -5 -18 11 -15 -36 5 -63 l16 -24
-109 7 c-60 4 -113 11 -118 16 -18 18 46 103 94 127 80 39 461 63 1016 63
l331 0 17 -86 c10 -47 20 -92 23 -100 4 -12 -25 -14 -168 -16 l-174 -2 170 -6
c94 -3 192 -12 218 -19 39 -11 59 -11 100 -2 36 8 281 12 797 14 667 3 755 5
840 21 l94 18 18 -22 c38 -48 10 -95 -67 -110 -70 -14 -2270 -24 -2940 -13
-581 10 -585 10 -612 62 -9 20 -9 30 4 54 14 28 17 29 61 23 71 -11 129 -16
109 -10 -19 6 -20 2 15 115 12 37 18 74 15 82 -4 10 -47 29 -111 48 -65 20
-107 38 -111 48 -13 33 -27 342 -22 481 7 173 26 272 69 352 39 73 68 90 173
98 121 10 149 10 286 0z m2380 -43 l-24 -22 19 27 c10 14 21 24 23 22 3 -3 -6
-15 -18 -27z m-2076 -15 c-3 -3 -11 0 -18 7 -9 10 -8 11 6 5 10 -3 15 -9 12
-12z m228 -39 c-7 -2 -21 -2 -30 0 -10 3 -4 5 12 5 17 0 24 -2 18 -5z m842 -3
c17 -7 14 -9 -15 -10 -19 -1 -51 -2 -70 -1 -33 1 -34 0 -12 -11 22 -11 107 -2
154 17 23 9 27 -20 10 -79 -18 -63 -36 -91 -78 -116 -30 -19 -36 -20 -61 -7
-15 8 -36 23 -45 34 -26 29 -58 105 -58 141 0 29 3 32 23 27 12 -3 34 -2 47 4
31 12 78 13 105 1z m708 -7 c-7 -2 -21 -2 -30 0 -10 3 -4 5 12 5 17 0 24 -2
18 -5z m1098 -1055 c-5 -123 -14 -235 -19 -249 -16 -42 -60 -51 -249 -57
l-172 -4 -31 30 c-16 17 -30 40 -30 51 0 19 6 21 53 21 149 1 357 19 385 34
44 23 56 73 28 111 -10 14 -11 25 -5 38 6 10 12 57 14 105 l4 87 -9 -75 c-15
-117 -14 -116 -64 -129 -68 -17 -82 -14 -94 17 -28 70 -44 134 -36 141 5 4 53
18 106 31 54 13 95 27 92 32 -3 4 2 18 10 30 9 12 17 32 17 43 2 13 3 11 6 -7
2 -15 0 -127 -6 -250z m-3680 202 c6 0 6 -7 -1 -19 -10 -20 2 -190 16 -212 3
-6 -2 -25 -11 -43 -16 -29 -16 -36 -4 -62 23 -48 55 -56 276 -67 199 -10 203
-11 197 -31 -22 -73 -47 -81 -253 -73 -154 5 -205 16 -222 49 -14 26 -28 236
-28 398 1 95 3 117 10 93 5 -18 14 -33 20 -33z m126 -37 c35 -8 62 -18 59 -20
-8 -8 -145 28 -153 40 -4 7 0 8 12 3 10 -3 47 -14 82 -23z m1775 -14 c-4 -25
-1 -29 18 -29 25 0 24 -12 0 -128 -16 -71 -20 -75 -89 -76 -77 -1 -91 18 -107
152 -6 49 -5 52 15 52 19 0 21 4 16 33 l-6 32 78 -3 79 -3 -4 -30z m1723 32
c-13 -11 -144 -45 -150 -39 -3 3 27 14 67 26 85 24 96 25 83 13z m-3517 -35
c52 -14 95 -26 97 -28 8 -8 -48 -160 -61 -165 -8 -3 -38 1 -67 8 -49 13 -52
16 -58 54 -14 84 -19 155 -12 155 5 0 50 -11 101 -24z m2742 -27 c295 -15 435
-31 468 -56 15 -11 42 -41 60 -68 31 -45 32 -49 15 -59 -18 -11 -1457 -15
-1467 -5 -5 4 19 150 30 187 4 16 582 17 894 1z m-2298 -96 c34 -31 11 -93
-35 -93 -22 0 -57 27 -57 44 0 6 7 0 16 -12 27 -39 84 -23 84 24 0 24 -15 39
-45 47 -19 4 -19 5 -1 6 11 0 28 -6 38 -16z m-7 -38 c0 -27 -3 -30 -30 -30
-21 0 -31 5 -33 18 -6 33 6 49 35 45 24 -3 28 -8 28 -33z"/>
<path d="M12552 5974 c-5 -165 -65 -375 -167 -581 -36 -73 -79 -148 -96 -168
-18 -20 -29 -38 -26 -41 11 -12 70 77 130 200 112 225 171 434 164 581 l-3 80
-2 -71z"/>
<path d="M9036 6019 c-12 -26 11 -206 40 -309 60 -219 217 -530 267 -530 5 0
-6 16 -26 35 -41 40 -149 252 -196 388 -49 140 -63 205 -70 322 -4 61 -10 103
-15 94z"/>
<path d="M9294 5860 c-31 -12 -72 -59 -85 -97 -6 -19 -9 -62 -7 -94 6 -86 42
-133 138 -181 52 -26 83 -49 100 -75 47 -68 73 -69 117 -4 21 31 26 33 83 34
57 2 64 5 95 39 35 37 55 90 55 144 0 40 -52 118 -103 155 -70 51 -123 35
-167 -51 -11 -22 -22 -40 -24 -40 -3 0 -19 25 -36 55 -49 86 -117 133 -166
115z m91 -41 c19 -17 50 -56 67 -85 18 -30 38 -54 45 -54 7 0 24 23 38 50 44
88 97 91 177 11 36 -36 47 -53 41 -66 -4 -12 -3 -16 4 -12 7 5 10 -12 8 -51
-2 -56 -20 -112 -37 -112 -4 0 -8 -6 -8 -13 0 -8 -6 -14 -12 -15 -7 -1 -28 -5
-46 -8 -65 -13 -132 67 -132 157 0 49 35 88 96 107 l39 11 -35 -5 c-43 -5 -79
-31 -104 -74 -16 -27 -18 -39 -9 -72 10 -36 9 -38 -7 -23 -28 25 -44 18 -73
-35 -28 -49 -39 -56 -71 -44 -13 5 -9 10 16 23 97 48 107 207 16 257 -50 29
-144 8 -168 -35 -17 -33 -11 -33 18 0 23 26 38 33 80 37 49 4 54 2 87 -31 30
-30 35 -42 35 -81 0 -78 -46 -145 -99 -146 -44 0 -98 47 -115 99 -28 87 -29
125 -7 169 40 78 96 93 156 41z m162 -304 c36 -35 50 -55 39 -55 -9 0 -21 11
-28 25 -21 46 -101 45 -119 -2 -5 -14 -12 -23 -15 -20 -8 8 45 107 57 107 6 0
36 -25 66 -55z m-9 -58 c6 -52 -72 -61 -84 -10 -5 20 -2 31 16 45 20 16 25 17
44 5 12 -8 22 -26 24 -40z m-7 -68 c-28 -23 -32 -23 -57 -4 -18 13 -17 14 18
15 20 0 40 5 43 11 4 6 10 7 14 4 3 -4 -5 -15 -18 -26z"/>
<path d="M9269 5721 c-70 -70 -1 -189 95 -165 39 9 76 59 76 101 0 50 -47 93
-102 93 -30 0 -46 -7 -69 -29z m134 -9 c22 -23 25 -34 20 -64 -10 -62 -86 -92
-137 -55 -16 12 -42 102 -26 92 9 -6 40 32 32 40 -4 3 2 3 12 -1 12 -5 17 -4
13 3 -4 6 7 10 27 11 24 1 40 -6 59 -26z"/>
<path d="M9388 5702 c15 -15 29 -26 31 -25 6 4 -41 53 -50 53 -4 0 4 -13 19
-28z"/>
<path d="M9690 5719 c13 -6 32 -15 40 -22 9 -7 5 -2 -8 11 -13 12 -31 22 -40
21 -11 0 -9 -4 8 -10z"/>
<path d="M9608 5694 c-64 -34 -72 -112 -16 -159 39 -33 87 -33 126 0 35 30 45
69 27 111 -25 59 -81 79 -137 48z m85 -5 c12 -6 29 -20 36 -31 7 -11 8 -17 2
-14 -7 5 -9 -3 -5 -22 4 -18 0 -41 -10 -61 -14 -26 -22 -31 -54 -31 -50 0 -82
29 -82 75 0 21 8 43 19 54 11 11 18 21 16 23 -3 2 12 2 33 0 28 -2 33 -1 22 7
-20 14 -7 14 23 0z"/>
<path d="M9690 5676 c0 -2 8 -10 18 -17 15 -13 16 -12 3 4 -13 16 -21 21 -21
13z"/>
<path d="M12201 5824 c-23 -20 -53 -58 -67 -85 -13 -27 -28 -49 -33 -49 -5 0
-14 14 -22 31 -44 108 -120 118 -205 27 -68 -71 -81 -142 -42 -224 28 -61 67
-84 141 -84 43 0 57 -4 57 -14 0 -8 10 -27 23 -42 33 -37 65 -27 109 33 27 37
46 52 84 65 51 18 106 63 129 108 39 75 25 182 -30 237 -46 46 -87 45 -144 -3z
m128 5 c27 -25 60 -94 61 -124 0 -16 -4 -14 -19 11 -11 18 -30 39 -42 48 -33
23 -110 21 -141 -4 -31 -24 -58 -78 -58 -117 0 -39 39 -103 77 -129 34 -23 33
-34 -2 -34 -15 0 -27 13 -43 45 -27 57 -46 64 -79 34 -25 -23 -25 -23 -14 -2
6 12 11 40 11 63 0 34 -6 48 -34 76 -20 20 -44 34 -57 34 -19 0 -16 -4 16 -19
66 -29 83 -97 45 -172 -26 -51 -74 -82 -115 -74 -16 3 -35 6 -42 7 -6 1 -24
23 -38 50 -23 42 -26 58 -22 109 4 56 8 64 53 110 64 65 107 75 143 32 14 -16
34 -44 44 -62 9 -18 23 -31 29 -29 7 3 27 29 45 59 57 97 133 133 182 88z m-8
-75 c43 -22 64 -74 48 -122 -15 -48 -42 -86 -79 -112 -27 -19 -32 -20 -63 -6
-67 28 -100 110 -72 183 26 68 98 93 166 57z m-172 -230 c12 -25 20 -51 17
-57 -2 -7 -5 -4 -5 5 -1 23 -46 52 -71 45 -24 -6 -25 -3 -4 28 24 36 39 31 63
-21z m-11 -37 c17 -13 15 -37 -5 -59 -22 -24 -49 -23 -67 4 -20 29 -20 34 4
58 19 19 40 18 68 -3z m-108 -12 c-7 -8 -19 -15 -27 -15 -10 0 -8 6 8 19 27
22 38 19 19 -4z m75 -75 l40 -6 -28 -14 c-26 -13 -30 -12 -55 15 -15 15 -20
24 -12 19 8 -4 33 -11 55 -14z"/>
<path d="M11878 5713 c-15 -10 -30 -24 -33 -32 -4 -10 3 -7 17 6 13 12 34 26
48 32 14 5 18 10 10 10 -8 0 -27 -7 -42 -16z"/>
<path d="M11874 5676 c-38 -38 -43 -70 -19 -116 46 -89 185 -54 185 47 0 47
-11 65 -41 70 -30 5 -38 13 -13 14 18 0 18 1 -1 9 -42 18 -76 11 -111 -24z
m82 15 c-5 -7 42 -36 55 -33 3 0 6 -21 8 -48 2 -45 0 -50 -28 -64 -44 -23 -87
-20 -105 6 -19 27 -21 71 -4 101 11 21 10 21 -8 7 -18 -14 -18 -14 -4 4 8 10
23 22 35 26 27 12 57 12 51 1z"/>
<path d="M12189 5721 c-49 -49 -38 -125 23 -157 54 -28 105 -8 137 54 13 24 6
86 -9 77 -4 -3 -13 2 -20 10 -10 12 -10 15 1 15 29 1 -38 29 -69 30 -24 0 -42
-8 -63 -29z m89 7 c-9 -7 -7 -8 9 -5 12 3 21 2 20 -2 -1 -3 7 -18 17 -33 21
-32 15 -74 -12 -95 -9 -7 -36 -13 -58 -13 -32 0 -46 5 -58 23 -9 12 -14 15
-10 7 4 -8 4 -12 -1 -8 -11 10 -12 87 -1 85 5 -1 11 4 14 12 3 9 0 11 -8 6 -8
-5 -11 -4 -6 3 4 6 14 8 23 5 11 -4 14 -3 9 5 -5 8 -1 10 10 5 10 -3 15 -2 12
3 -3 5 7 9 24 10 21 1 26 -1 16 -8z"/>
<path d="M12066 4979 c-14 -11 -26 -29 -26 -40 0 -25 17 -59 30 -59 5 0 1 13
-8 30 -16 28 -16 30 3 47 11 10 14 11 7 4 -16 -20 -15 -36 4 -55 21 -22 50
-20 74 4 24 24 27 14 3 -12 -9 -10 -11 -18 -5 -18 13 0 32 32 32 55 0 22 -45
65 -68 65 -11 0 -31 -9 -46 -21z m44 1 c-22 -7 -23 -8 -4 -9 31 -1 51 -28 37
-49 -21 -34 -82 -19 -67 17 3 9 7 23 9 31 2 8 4 16 4 18 1 1 11 2 24 1 21 -1
21 -1 -3 -9z"/>
<path d="M2925 4452 c-37 -23 -92 -75 -127 -121 l-26 -34 -159 22 c-243 33
-340 40 -568 41 -263 0 -443 -24 -750 -101 -224 -56 -605 -189 -749 -261 -121
-61 -197 -163 -230 -309 -14 -60 -67 -383 -151 -919 -43 -269 -60 -331 -121
-433 -56 -93 -55 -116 4 -210 21 -34 46 -80 54 -103 9 -22 58 -297 108 -610
97 -607 107 -659 145 -742 56 -121 111 -165 306 -245 298 -123 667 -233 927
-277 284 -49 675 -47 1022 5 l155 23 23 -26 c74 -84 106 -113 141 -132 86 -43
116 -13 109 108 -3 42 -8 84 -12 93 -5 12 7 20 61 36 37 11 148 48 245 82 321
111 392 119 1118 128 603 7 559 8 1735 -78 178 -13 397 -23 540 -23 214 -1
252 2 348 22 200 42 297 88 537 255 47 32 94 70 106 83 20 24 29 26 172 34 90
6 159 14 172 22 11 7 23 29 27 48 5 19 8 658 8 1420 0 1537 4 1437 -65 1452
-19 4 -91 10 -160 14 l-125 7 -43 39 c-58 53 -267 189 -367 239 -44 22 -134
54 -200 72 l-120 32 -295 -1 c-248 -1 -398 -8 -945 -48 -761 -55 -996 -62
-1550 -47 -528 14 -629 28 -903 128 -70 25 -165 58 -212 73 -60 19 -84 31 -81
41 2 8 6 49 9 91 4 61 1 83 -12 103 -20 30 -58 33 -101 7z m86 -24 c14 -26 7
-134 -13 -192 -20 -61 -34 -64 -116 -26 -90 41 -98 50 -78 87 26 50 85 110
128 132 54 26 64 26 79 -1z m-631 -104 c225 -18 371 -42 378 -63 4 -11 -5 -13
-49 -8 -190 24 -316 29 -539 24 -236 -5 -253 -7 -450 -46 -448 -90 -775 -187
-978 -290 -130 -66 -166 -142 -236 -491 -21 -104 -123 -714 -166 -991 -7 -42
-16 -83 -21 -90 -21 -35 -20 15 4 159 15 86 54 320 87 518 70 424 122 679 154
749 48 105 159 208 295 271 503 236 920 307 1521 258z m229 -79 c68 -8 126
-17 129 -20 3 -3 -13 -64 -37 -135 -25 -76 -41 -143 -39 -162 l3 -33 67 3 67
3 7 -61 c4 -34 14 -71 24 -82 l17 -22 159 22 c87 12 159 20 161 18 8 -7 -366
-122 -562 -172 -542 -137 -1287 -249 -1872 -280 -73 -4 -133 -11 -133 -15 0
-11 34 -11 410 1 779 25 1305 79 1649 170 62 17 116 30 120 30 3 0 -23 -17
-59 -37 -105 -59 -169 -109 -280 -222 -116 -117 -205 -241 -282 -394 -53 -108
-111 -268 -131 -369 l-13 -63 -54 -7 c-243 -34 -430 -110 -430 -176 0 -28 36
-69 78 -91 63 -32 224 -79 297 -86 109 -12 109 -11 129 -107 51 -236 186 -494
358 -684 124 -136 212 -210 328 -273 84 -45 83 -49 -5 -22 -281 88 -791 147
-1565 181 -237 10 -557 14 -549 6 2 -3 123 -14 269 -26 864 -69 1557 -197
2188 -402 68 -22 122 -41 120 -43 -2 -2 -62 5 -133 15 -72 11 -147 22 -168 25
-35 5 -38 3 -52 -27 -7 -18 -17 -54 -20 -80 l-6 -47 -67 -3 c-66 -3 -67 -3
-70 -32 -2 -17 15 -90 39 -163 23 -73 41 -135 38 -137 -26 -26 -601 -46 -763
-27 -106 12 -340 56 -521 97 -350 80 -705 209 -783 285 -73 71 -112 203 -186
624 -57 326 -139 855 -134 860 3 3 76 -17 163 -45 86 -29 159 -49 162 -46 3 3
0 8 -8 11 -8 2 -84 29 -171 59 -196 68 -215 78 -236 124 -9 20 -21 40 -26 44
-5 3 -2 14 7 23 10 9 17 22 17 29 0 28 54 59 186 107 216 78 240 88 220 88
-10 1 -84 -22 -164 -49 -80 -28 -147 -48 -150 -45 -7 6 88 607 144 915 73 401
114 529 186 583 141 106 556 237 1058 333 273 53 564 62 869 29z m195 -21 c23
-9 20 -27 -25 -151 -39 -108 -42 -112 -62 -100 -12 7 -23 13 -25 14 -2 0 11
43 28 95 54 160 51 155 84 142z m377 -60 c78 -25 139 -48 136 -50 -2 -3 -53 9
-113 25 -60 16 -128 34 -151 40 -42 11 -59 31 -27 31 8 0 78 -21 155 -46z
m-205 1 c39 5 202 -30 350 -76 47 -15 75 -89 33 -89 -34 0 -59 -19 -59 -46 0
-27 16 -36 62 -38 27 -1 29 -4 26 -35 -3 -33 -6 -35 -73 -58 -38 -13 -99 -25
-135 -27 -36 -1 -111 -9 -168 -16 -74 -10 -108 -11 -120 -4 -18 12 -40 109
-28 122 4 3 91 11 194 16 190 9 239 17 226 37 -7 12 -256 6 -381 -8 l-53 -6 0
62 c0 105 -1 104 158 96 104 -5 134 -4 126 5 -7 7 -63 12 -162 13 -168 2 -156
-3 -131 65 l9 23 41 -22 c32 -16 52 -19 85 -14z m-2076 -49 c0 -3 -53 -32
-117 -66 -170 -87 -251 -146 -295 -210 -64 -96 -108 -276 -178 -730 -60 -390
-109 -685 -115 -701 -3 -8 -21 -23 -41 -34 -38 -21 -114 -98 -114 -117 0 -6
16 7 35 30 39 45 121 96 173 107 37 8 40 -2 12 -38 -58 -74 -62 -157 -9 -223
16 -20 29 -41 29 -45 0 -16 -45 -9 -95 15 -61 30 -87 50 -120 95 -14 19 -25
29 -25 21 0 -24 52 -81 105 -115 l52 -34 26 -163 c15 -90 54 -333 87 -540 87
-548 126 -690 215 -781 47 -48 89 -75 250 -159 72 -37 125 -68 118 -68 -19 0
-333 128 -379 155 -61 36 -118 106 -149 182 -27 69 -41 144 -139 753 -94 584
-90 565 -153 675 -64 113 -64 121 -3 216 22 34 47 85 56 113 14 49 66 356 155
916 45 285 59 352 94 427 57 125 120 167 435 289 96 38 90 35 90 30z m1940
-37 c-6 -11 -10 -46 -9 -77 2 -31 -1 -57 -7 -57 -13 0 -17 96 -5 128 6 15 15
27 21 27 7 0 7 -6 0 -21z m4180 -5 c93 -16 243 -54 237 -60 -2 -2 -39 4 -83
13 -64 15 -125 18 -324 17 -258 0 -320 -5 -955 -74 -198 -21 -396 -42 -441
-45 l-81 -7 -32 39 -32 38 48 7 c42 7 835 64 1203 87 161 11 343 4 460 -15z
m-3485 -29 c141 -29 227 -40 468 -60 504 -43 823 -62 1274 -78 39 -1 74 -4 76
-7 5 -5 -71 -352 -79 -359 -2 -3 -62 12 -132 32 -398 114 -1099 176 -1548 135
-194 -17 -186 -17 -203 16 -18 39 -11 50 79 112 41 28 76 56 78 62 1 5 -26 -1
-61 -14 -36 -12 -68 -20 -71 -17 -3 4 -6 27 -6 52 0 26 -6 70 -14 99 -16 63
-25 61 139 27z m3478 -15 c124 -10 236 -35 343 -75 63 -24 306 -176 332 -208
10 -12 13 -68 12 -243 0 -126 -3 -230 -6 -233 -8 -8 -237 26 -430 64 -267 53
-435 97 -1419 370 -510 141 -483 131 -469 181 5 19 15 22 116 28 61 4 229 20
372 36 408 45 687 71 856 79 85 5 160 9 165 9 6 1 63 -3 128 -8z m-4221 -82
c-5 -11 -32 -10 -32 1 0 4 6 23 12 42 l13 34 5 -35 c4 -19 4 -38 2 -42z m2518
17 c18 -19 31 -37 28 -40 -11 -11 -948 37 -983 50 -5 2 118 4 275 6 237 1 500
9 621 17 17 1 36 -9 59 -33z m-1920 -10 c0 -22 -4 -25 -34 -25 -22 0 -36 6
-40 17 -8 20 10 33 47 33 22 0 27 -4 27 -25z m-672 -7 c-6 -18 -28 -21 -28 -4
0 9 7 16 16 16 9 0 14 -5 12 -12z m-2106 -45 c-70 -84 -79 -111 -137 -382 -19
-91 -29 -119 -47 -133 -52 -40 -59 3 -23 150 59 241 93 311 182 377 65 47 72
44 25 -12z m2451 30 c-7 -2 -19 -2 -25 0 -7 3 -2 5 12 5 14 0 19 -2 13 -5z
m-215 -85 c5 -29 13 -61 17 -70 10 -24 -11 -23 -24 0 -5 10 -13 42 -17 70 -9
70 11 69 24 0z m622 7 c0 -2 -13 -11 -30 -20 -16 -9 -30 -12 -30 -7 0 5 10 14
23 20 25 12 37 14 37 7z m-80 -39 c0 -12 -163 -104 -267 -151 -424 -190 -770
-261 -1523 -309 -248 -17 -503 -27 -480 -21 8 2 116 16 240 30 712 82 1294
210 1895 419 93 32 135 42 135 32z m2087 -42 c105 -44 684 -333 752 -374 32
-20 33 -22 26 -68 -9 -61 -41 -202 -48 -208 -3 -3 -94 39 -203 94 -232 116
-388 186 -571 256 -72 28 -132 54 -133 59 -2 4 3 35 9 68 10 51 15 59 29 53 9
-4 33 -8 52 -8 29 -1 36 3 38 21 2 16 -5 26 -30 39 -55 28 -57 31 -46 74 6 22
12 40 14 40 2 0 52 -21 111 -46z m-2100 -89 c-1 -1 -76 -20 -167 -42 -91 -23
-174 -44 -185 -47 -11 -4 16 10 60 31 44 21 125 61 180 90 l100 52 7 -42 c4
-22 7 -41 5 -42z m2635 -44 c835 -231 943 -259 1218 -316 96 -20 243 -46 325
-59 138 -20 150 -24 153 -44 5 -32 -24 -35 -272 -29 -351 9 -558 55 -913 203
-85 35 -157 64 -161 64 -5 0 -26 -13 -49 -30 l-41 -30 -363 186 c-200 102
-356 183 -347 180 9 -2 212 -59 450 -125z m-1617 39 c337 -32 649 -87 825
-148 51 -18 56 -22 76 -73 12 -30 21 -56 19 -57 -2 -2 -61 14 -132 36 -325
103 -625 159 -971 182 -177 12 -460 12 -577 1 -77 -7 -83 -6 -140 23 l-60 30
50 8 c70 13 382 24 555 20 80 -2 240 -12 355 -22z m985 15 c36 -19 42 -50 8
-39 -40 12 -77 54 -48 54 6 0 24 -7 40 -15z m2635 -15 c25 -11 -148 -1 -195
11 -22 5 5 6 70 2 58 -3 114 -9 125 -13z m-87 -21 c75 -6 138 -12 140 -14 8
-8 12 -2371 5 -2585 l-8 -235 -145 -12 c-80 -6 -154 -13 -165 -15 -20 -3 -20
7 -23 1441 l-2 1444 30 -7 c17 -3 92 -11 168 -17z m-4458 -25 c69 -38 711
-297 917 -370 206 -73 308 -86 1038 -129 l440 -27 60 -58 c32 -33 56 -62 52
-66 -6 -7 -190 4 -532 31 -99 8 -283 22 -410 30 -373 26 -489 57 -987 264
-508 211 -487 205 -648 205 -152 1 -170 -4 -342 -90 -141 -70 -261 -158 -379
-274 -204 -201 -319 -429 -359 -716 l-12 -82 -42 18 c-22 10 -62 24 -88 30
-56 14 -58 23 -32 124 87 345 354 692 729 945 162 110 185 120 347 161 84 21
160 38 168 39 8 0 44 -15 80 -35z m355 -75 c39 -28 91 -65 117 -82 27 -17 47
-32 45 -34 -3 -2 -301 116 -367 145 -10 4 0 9 25 13 94 14 107 12 180 -42z
m355 41 c235 -11 424 -38 680 -96 220 -50 419 -108 408 -120 -3 -2 -41 7 -84
21 -352 115 -827 185 -1261 185 -70 0 -124 4 -128 10 -8 13 108 13 385 0z
m230 -51 c244 -26 582 -96 780 -163 86 -28 97 -35 112 -66 15 -30 40 -150 34
-157 -5 -5 -593 37 -661 47 -38 6 -106 20 -150 31 -85 22 -340 116 -415 154
-57 29 -260 162 -260 171 0 9 441 -4 560 -17z m-1450 6 c0 -2 -46 -36 -101
-76 -399 -282 -643 -602 -730 -954 -26 -105 -31 -114 -64 -107 -31 6 -31 16
-1 133 82 316 282 621 530 813 110 84 125 93 251 147 125 54 115 50 115 44z
m640 -88 c41 -13 226 -87 410 -164 184 -77 378 -154 430 -172 103 -34 128 -46
117 -57 -15 -15 -213 55 -557 198 -457 191 -487 201 -620 201 -66 0 -102 -6
-163 -26 -211 -73 -388 -193 -544 -370 -169 -191 -270 -390 -309 -607 -8 -47
-19 -103 -23 -125 -8 -38 -9 -39 -10 -8 -4 107 47 308 113 449 65 137 137 238
255 354 158 157 376 293 549 341 94 27 248 20 352 -14z m1888 -33 c256 -101
676 -307 732 -359 41 -37 427 -258 618 -354 205 -102 391 -179 512 -212 93
-26 84 -38 -14 -19 -124 24 -251 65 -687 226 -279 103 -453 162 -464 157 -19
-7 -18 -46 5 -293 14 -137 14 -557 0 -685 -5 -55 -13 -144 -17 -197 l-6 -98
26 0 c15 0 154 47 309 104 633 233 722 262 891 290 63 11 41 -8 -31 -26 -116
-29 -329 -117 -537 -223 -225 -114 -554 -303 -600 -345 -59 -53 -466 -252
-749 -365 -92 -37 -169 -65 -172 -62 -7 7 27 90 45 108 9 9 52 31 96 49 327
134 518 262 577 390 62 134 88 341 88 711 0 479 -40 693 -151 814 -82 89 -240
183 -479 286 -135 57 -135 57 -157 106 -25 56 -27 63 -12 63 6 0 86 -30 177
-66z m-1933 -2 c39 -10 160 -57 270 -105 248 -106 424 -176 583 -233 68 -24
127 -46 131 -48 4 -3 2 -38 -5 -78 -39 -231 -48 -362 -48 -738 -1 -379 9 -523
48 -732 l13 -67 -26 -10 c-14 -6 -106 -40 -204 -76 -99 -36 -285 -111 -415
-167 -278 -118 -348 -142 -459 -158 -109 -16 -189 2 -340 74 -168 82 -246 137
-361 255 -189 195 -305 397 -358 627 -15 62 -19 117 -18 259 1 229 21 328 101
505 74 162 249 382 396 497 108 85 291 179 406 208 70 18 191 13 286 -13z
m2983 -61 c360 -149 587 -195 960 -196 l212 0 -2 -319 -3 -319 -114 2 c-94 2
-116 -1 -132 -15 -14 -13 -28 -15 -60 -10 -147 23 -608 237 -931 430 l-195
117 22 82 c20 73 34 147 51 265 3 17 9 32 15 32 6 0 85 -31 177 -69z m-218
-28 c-10 -74 -54 -260 -64 -271 -4 -3 -12 0 -18 6 -18 18 37 289 65 319 11 13
22 22 23 20 2 -1 -1 -35 -6 -74z m-972 16 c34 -12 56 -60 68 -151 7 -48 7 -48
-22 -48 -29 0 -29 2 -54 105 -14 58 -25 105 -24 105 0 0 15 -5 32 -11z m-4983
-455 c-36 -219 -68 -417 -71 -439 -7 -45 -17 -55 -55 -55 l-26 0 28 168 c39
239 96 593 109 689 12 82 12 82 44 85 27 3 31 0 34 -23 2 -14 -27 -205 -63
-425z m5251 340 c184 -92 262 -145 103 -71 -167 78 -314 156 -296 156 10 1 97
-38 193 -85z m-24 -30 l153 -76 -139 7 c-76 4 -144 9 -151 11 -13 5 -36 134
-24 134 5 0 77 -34 161 -76z m-887 -153 c55 -11 138 -22 185 -25 515 -37 635
-47 642 -54 10 -10 25 -114 43 -307 22 -227 22 -665 0 -880 -16 -163 -32 -283
-40 -296 -8 -12 -63 -18 -408 -44 -185 -14 -383 -34 -439 -45 -72 -14 -104
-16 -109 -9 -9 15 -46 242 -61 374 -17 150 -17 773 0 930 25 227 54 375 75
375 7 0 57 -9 112 -19z m1108 -92 c120 -8 183 -17 192 -26 14 -14 47 -143 65
-258 18 -106 26 -416 18 -640 -6 -186 -25 -333 -58 -453 -19 -72 -14 -70 -247
-89 -117 -9 -215 -15 -217 -12 -3 3 1 57 9 120 50 406 50 904 0 1257 -9 57
-12 108 -9 114 3 5 20 7 38 5 17 -3 111 -11 209 -18z m653 -208 c382 -141 382
-140 412 -166 l27 -23 0 -319 c0 -175 -3 -330 -8 -345 -10 -37 -38 -50 -339
-162 -304 -112 -357 -130 -365 -122 -4 3 -1 59 6 124 22 200 26 691 7 885 -16
165 -19 227 -13 227 2 0 125 -45 273 -99z m528 -196 c162 -61 430 -121 590
-132 167 -11 137 -23 -49 -19 -198 4 -324 24 -502 78 -102 31 -112 39 -113 86
0 16 -3 16 74 -13z m552 -52 c-37 -3 -49 -8 -53 -24 -6 -21 -18 -25 -29 -7
-12 20 28 38 80 36 l51 -2 -49 -3z m-341 -83 c107 -22 293 -40 418 -40 l87 0
0 -155 0 -155 -141 0 c-199 0 -393 -31 -563 -90 -33 -11 -63 -20 -68 -20 -4 0
-8 121 -8 269 l0 269 92 -30 c51 -16 133 -38 183 -48z m443 53 c-27 -2 -69 -2
-95 0 -27 2 -5 3 47 3 52 0 74 -1 48 -3z m61 -29 c2 -2 -31 -4 -75 -4 -55 0
-74 3 -64 10 13 9 128 3 139 -6z m-5522 -78 c76 -20 118 -50 137 -95 36 -91
-29 -164 -169 -190 -101 -19 -275 -12 -367 15 -15 5 -14 8 9 28 22 19 27 33
31 82 4 54 -4 88 -36 146 -3 6 70 23 138 32 57 7 201 -3 257 -18z m-457 -48
c-24 -40 -27 -130 -5 -172 9 -16 13 -31 11 -34 -9 -8 -144 60 -166 83 -40 43
-8 78 117 130 32 13 59 24 60 25 2 0 -6 -15 -17 -32z m64 -10 c18 -26 22 -129
6 -159 -6 -10 -19 -19 -30 -19 -28 0 -40 30 -40 97 0 56 18 103 40 103 5 0 16
-10 24 -22z m565 -289 c31 -231 158 -469 363 -684 139 -146 312 -256 505 -321
70 -24 88 -26 178 -21 126 7 200 31 516 165 201 86 530 214 607 237 19 6 23 3
20 -10 -2 -11 -31 -26 -88 -44 -47 -15 -255 -98 -462 -184 -208 -87 -406 -165
-440 -174 -40 -11 -102 -17 -168 -17 -94 0 -114 3 -189 32 -353 134 -648 411
-781 731 -40 97 -78 255 -84 348 -7 93 7 59 23 -58z m-1974 -294 c90 -572 155
-911 197 -1023 11 -29 34 -72 51 -95 93 -124 645 -303 1227 -398 167 -27 534
-32 753 -10 126 13 161 12 144 -5 -19 -19 -374 -60 -592 -68 -383 -15 -718 39
-1077 175 -202 75 -325 140 -401 209 -119 109 -132 139 -192 430 -34 163 -195
1122 -195 1158 0 14 2 14 14 2 9 -10 35 -147 71 -375z m1940 278 c49 -303 179
-538 413 -746 123 -109 252 -192 412 -264 l85 -38 165 0 165 0 90 37 c50 19
218 89 375 155 531 223 595 240 1040 273 157 12 422 32 590 44 168 13 308 20
313 16 4 -3 -21 -33 -55 -66 l-63 -61 -215 -12 c-484 -27 -950 -62 -1030 -77
-47 -8 -118 -26 -158 -40 -161 -54 -873 -339 -952 -381 -98 -53 -102 -53 -300
-3 -142 35 -188 58 -360 178 -160 111 -396 343 -489 480 -111 165 -221 427
-221 528 0 30 3 34 28 34 15 0 52 11 82 24 30 13 58 24 61 25 3 0 14 -47 24
-106z m-2044 38 c7 -6 137 -787 146 -876 l6 -53 -34 3 c-18 1 -34 6 -36 11 -1
5 -34 209 -73 454 -39 245 -72 450 -75 457 -2 6 -1 14 2 17 7 6 54 -3 64 -13z
m7384 10 c37 -7 34 -8 -40 -15 -205 -19 -492 -82 -635 -140 -35 -14 -65 -24
-68 -22 -2 3 -1 18 3 35 6 29 13 33 103 61 219 69 509 106 637 81z m-5547 -64
c39 -213 170 -460 355 -667 118 -133 249 -244 420 -359 42 -28 77 -53 77 -55
0 -6 -99 33 -186 74 -295 137 -572 476 -693 847 -62 191 -63 222 -5 223 17 0
22 -10 32 -63z m5555 16 c-24 -2 -62 -2 -85 0 -24 2 -5 4 42 4 47 0 66 -2 43
-4z m-183 -22 c0 -12 8 -21 23 -24 21 -4 20 -4 -3 -5 -33 -2 -54 12 -47 32 9
22 27 20 27 -3z m163 -8 c-29 -2 -77 -2 -105 0 -29 2 -6 3 52 3 58 0 81 -1 53
-3z m-199 -28 c15 -11 50 -15 138 -15 l118 0 0 -274 c0 -150 -3 -294 -6 -320
l-7 -46 -186 0 c-375 0 -618 -50 -976 -200 -93 -38 -172 -67 -176 -63 -4 5
-15 51 -23 103 -9 52 -24 129 -35 170 -12 41 -21 82 -21 91 0 40 603 371 860
473 94 37 269 94 290 95 3 0 14 -6 24 -14z m-1185 -592 c32 -125 41 -165 49
-230 9 -77 4 -88 -21 -50 -18 28 -71 282 -63 303 10 25 25 15 35 -23z m-30
-136 c12 -59 21 -114 21 -122 0 -16 -87 -64 -415 -228 -261 -131 -448 -217
-471 -217 -7 0 -15 9 -18 20 -3 11 -8 29 -12 40 -4 15 4 24 36 40 48 24 59 45
37 68 -13 13 -21 13 -42 4 -42 -19 -52 -14 -64 32 -20 81 -23 78 112 131 198
78 400 169 597 269 124 63 187 90 192 82 3 -6 16 -60 27 -119z m-499 107 c0
-8 -310 -157 -316 -151 -6 5 20 125 29 133 3 3 63 9 134 13 70 5 134 9 141 10
6 0 12 -2 12 -5z m65 -3 c-16 -15 -234 -127 -314 -161 -144 -62 -81 -18 110
74 186 91 225 107 204 87z m-385 -32 c0 -11 -7 -52 -16 -90 -14 -60 -21 -73
-47 -89 -17 -11 -33 -18 -35 -15 -7 7 41 200 52 207 22 15 46 8 46 -13z m-92
-43 c-18 -117 -25 -127 -105 -157 -190 -70 -493 -136 -779 -169 -195 -23 -594
-39 -594 -24 0 8 148 108 240 162 48 28 330 136 420 161 108 30 250 49 475 61
110 6 205 13 210 15 6 2 40 4 76 4 l66 1 -9 -54z m2312 25 c61 -6 65 -8 65
-31 0 -21 -5 -25 -30 -28 -170 -15 -506 -80 -790 -152 -186 -47 -1101 -298
-1260 -345 -43 -13 -80 -23 -82 -22 -3 3 721 367 731 367 4 0 22 -11 40 -25
18 -14 40 -25 49 -25 9 0 105 36 214 80 202 81 350 125 528 155 165 29 396 40
535 26z m70 -297 c0 -133 -4 -233 -10 -244 -15 -29 -268 -194 -336 -220 -144
-54 -240 -72 -429 -77 -200 -6 -393 8 -1035 77 -201 21 -401 42 -445 47 l-80
8 -3 33 c-2 17 0 32 3 32 6 0 915 251 1145 316 423 120 988 242 1173 253 16 1
17 -16 17 -225z m-6613 160 c-3 -3 -12 -4 -19 -1 -8 3 -5 6 6 6 11 1 17 -2 13
-5z m553 -30 c393 -27 692 -64 900 -110 226 -50 554 -173 746 -280 58 -32 108
-74 88 -74 -5 0 -139 43 -297 95 -534 176 -1054 285 -1767 370 l-205 24 165
-5 c91 -3 257 -12 370 -20z m-1203 -55 c6 -13 27 -96 46 -185 37 -169 64 -237
126 -313 l36 -45 -34 20 c-103 58 -152 145 -206 362 -34 138 -42 192 -28 205
10 10 46 -17 60 -44z m4788 15 c-149 -56 -455 -130 -680 -164 -208 -33 -755
-62 -755 -42 0 7 1 12 3 13 1 0 124 4 272 9 272 9 397 21 624 60 124 21 371
82 486 119 70 23 108 26 50 5z m64 -51 c-11 -27 -26 -53 -32 -59 -24 -23 -237
-80 -427 -114 -388 -69 -985 -102 -1268 -69 -127 15 -134 19 -75 51 48 25 49
25 228 19 216 -8 531 3 721 24 223 25 529 93 779 174 95 31 98 30 74 -26z
m-1324 -2 c-6 -4 -56 -40 -111 -80 l-101 -71 -77 0 c-42 0 -76 3 -76 8 0 5
353 151 370 152 2 0 0 -4 -5 -9z m1310 -118 c18 -73 74 -327 72 -329 -1 -1
-121 -7 -267 -13 -409 -17 -806 -45 -1233 -86 -162 -16 -282 -34 -395 -60 -35
-8 -67 -15 -71 -15 -5 0 -2 26 5 58 8 31 14 73 14 92 1 59 9 63 75 40 33 -11
63 -19 68 -17 5 1 -30 29 -78 62 -48 32 -89 65 -92 72 -3 7 1 27 8 44 l12 31
61 -6 c288 -31 636 -31 941 0 310 31 611 83 770 133 86 27 101 26 110 -6z
m-2115 -62 c85 -21 168 -41 183 -45 26 -6 27 -9 21 -44 -4 -20 -8 -38 -9 -40
-1 -1 -69 30 -151 70 -82 40 -162 78 -179 85 -53 20 -22 14 135 -26z m2240
-34 c0 -17 -67 -50 -75 -37 -9 14 3 30 29 40 31 13 46 12 46 -3z m2595 -17
c-65 -12 -231 -23 -222 -13 10 9 112 20 202 20 55 1 57 0 20 -7z m-5143 -97
c-5 -10 -13 -39 -16 -65 -7 -50 -26 -76 -26 -36 1 46 18 111 31 119 18 11 22
4 11 -18z m221 -8 c59 -9 116 -13 127 -10 12 4 54 -6 100 -22 78 -27 80 -29
80 -60 0 -30 -3 -33 -29 -33 -46 0 -61 -10 -61 -40 0 -30 15 -40 57 -40 23 0
25 -3 19 -32 -3 -18 -14 -40 -25 -49 -10 -8 -92 -34 -183 -58 -132 -34 -169
-40 -191 -32 -21 8 -37 6 -73 -9 -25 -11 -47 -20 -50 -20 -5 0 -34 57 -34 67
0 4 42 9 93 10 114 2 217 12 217 21 0 4 -55 4 -122 0 -152 -9 -158 -6 -158 89
l0 64 173 -6 c94 -3 188 -8 207 -10 19 -2 42 0 50 5 27 18 -6 27 -118 34 -59
3 -151 9 -204 12 l-98 7 1 31 c2 74 33 110 88 101 14 -3 74 -12 134 -20z m363
-51 c17 -14 17 -15 1 -10 -10 3 -23 6 -28 6 -5 0 -9 5 -9 10 0 14 13 12 36 -6z
m-746 -68 c0 -3 -4 -8 -10 -11 -5 -3 -10 -1 -10 4 0 6 5 11 10 11 6 0 10 -2
10 -4z m2640 -25 c0 -5 -15 -22 -32 -37 l-33 -27 -125 7 c-69 3 -287 6 -484 6
-198 0 -357 2 -355 4 6 6 407 34 644 45 245 12 385 12 385 2z m545 -36 c617
-68 752 -79 975 -79 140 -1 236 4 275 12 103 22 111 23 95 13 -44 -27 -261
-63 -405 -68 -149 -5 -227 -2 -770 37 -154 10 -383 26 -510 35 -126 9 -232 18
-234 21 -3 2 11 20 30 40 l34 36 100 -7 c55 -3 240 -22 410 -40z m-3173 20 c0
-5 -5 -11 -11 -13 -6 -2 -11 4 -11 13 0 9 5 15 11 13 6 -2 11 -8 11 -13z m678
-5 c0 -26 -19 -34 -53 -21 -38 15 -25 41 19 41 28 0 34 -4 34 -20z m-598 -26
c-5 -39 -17 -35 -27 9 -6 22 -4 27 12 27 16 0 18 -6 15 -36z m49 -98 c5 -6 9
-15 9 -20 -1 -6 -10 0 -20 13 -21 24 -26 75 -12 121 5 18 8 7 10 -40 2 -36 7
-69 13 -74z m-45 -43 c24 -68 26 -84 15 -97 -27 -32 -39 -16 -77 97 -20 61
-39 117 -41 123 -2 6 6 15 19 21 21 10 25 7 39 -26 9 -20 29 -73 45 -118z
m514 3 c0 -6 -274 -96 -289 -96 -6 0 -11 6 -11 13 0 7 54 26 138 48 141 38
162 42 162 35z m-317 -108 c23 -46 33 -163 18 -202 -10 -24 -15 -27 -37 -22
-45 12 -100 55 -143 113 -22 30 -41 61 -41 69 0 17 138 86 165 82 12 -2 27
-18 38 -40z"/>
<path d="M1350 4045 c-183 -39 -311 -118 -346 -216 -15 -42 -26 -54 -69 -78
-65 -37 -82 -57 -68 -79 5 -9 24 -21 42 -26 30 -9 31 -11 31 -62 0 -93 47
-127 229 -165 134 -28 239 -16 351 41 53 27 140 113 140 138 0 29 -39 57 -110
81 -36 12 -71 25 -78 30 -31 19 -5 46 102 106 157 87 179 128 98 179 -94 58
-207 76 -322 51z m242 -35 c29 -11 67 -31 83 -44 l30 -24 -20 -28 c-12 -15
-68 -52 -124 -83 -57 -31 -110 -66 -118 -77 -12 -19 -12 -25 9 -47 13 -15 51
-35 88 -47 63 -21 100 -44 100 -62 0 -16 -73 -88 -116 -113 -66 -39 -187 -68
-256 -61 -69 7 -201 36 -194 43 2 3 39 -2 81 -11 119 -25 141 -22 161 17 22
42 22 138 0 172 -25 38 -53 39 -159 5 -111 -35 -157 -68 -157 -110 0 -16 5
-32 10 -35 6 -3 10 -12 10 -18 0 -7 -14 3 -30 21 -24 26 -30 41 -30 78 l0 46
34 -3 c19 -2 41 3 50 10 30 25 15 121 -19 121 -18 0 -19 29 -4 64 12 25 12 25
38 6 32 -23 129 -40 233 -40 77 0 78 0 95 33 23 44 23 143 0 179 -14 20 -15
27 -5 32 25 11 157 -4 210 -24z m-211 -47 c21 -63 -10 -170 -45 -157 -39 15
-49 145 -15 188 25 32 42 23 60 -31z m-94 -30 c-1 -38 2 -82 6 -98 l8 -31 -84
7 c-96 7 -157 24 -157 44 0 22 60 66 145 106 44 21 81 39 82 39 1 0 1 -30 0
-67z m-297 -239 l0 -46 -32 7 c-18 4 -43 13 -56 19 -21 11 -22 14 -8 25 12 10
75 37 94 41 1 0 2 -21 2 -46z m55 17 c7 -32 -10 -75 -26 -66 -10 7 -13 78 -2
88 13 14 22 7 28 -22z m251 -72 c14 -16 19 -36 19 -85 0 -53 -4 -67 -23 -86
l-23 -23 -20 24 c-27 33 -29 128 -3 169 18 27 26 28 50 1z m-78 -20 c-6 -18
-8 -58 -5 -96 6 -57 5 -64 -11 -59 -9 2 -46 9 -82 16 -151 27 -141 92 22 150
80 28 89 27 76 -11z"/>
<path d="M1215 1064 c-232 -48 -275 -75 -275 -179 0 -43 -2 -46 -40 -61 -22
-9 -40 -20 -40 -24 0 -24 18 -43 69 -74 44 -27 60 -43 70 -73 7 -21 24 -52 37
-70 45 -60 215 -139 350 -163 62 -11 82 -10 145 4 80 18 175 69 185 99 13 40
-37 84 -176 154 -115 59 -105 82 52 133 38 11 68 42 68 68 0 22 -87 107 -138
135 -86 47 -219 69 -307 51z m166 -23 c31 -5 77 -19 103 -32 53 -25 156 -114
156 -135 0 -18 -33 -38 -110 -64 -82 -28 -92 -36 -88 -74 3 -28 12 -36 96 -81
52 -27 110 -64 130 -81 l37 -32 -20 -22 c-44 -48 -113 -73 -217 -78 -54 -2
-98 -1 -98 2 0 4 8 18 17 32 21 32 22 128 2 169 l-14 30 -115 0 c-135 0 -183
-8 -209 -36 -19 -20 -19 -20 -34 25 -13 38 -13 46 -2 46 24 0 45 31 45 66 0
56 -15 74 -60 74 l-40 0 0 44 c0 29 7 52 21 70 27 35 40 33 26 -3 -22 -58 24
-100 157 -140 96 -30 132 -28 150 7 28 54 24 151 -7 187 l-23 27 -89 -16 c-50
-10 -99 -19 -110 -21 -11 -3 -5 2 13 10 65 30 187 41 283 26z m-75 -56 c28
-69 11 -157 -34 -163 -28 -4 -42 29 -42 101 0 90 48 129 76 62z m-86 -1 c-6
-14 -10 -45 -10 -69 0 -24 4 -55 10 -69 5 -14 8 -26 7 -26 -16 0 -122 37 -159
56 -54 28 -69 57 -41 85 18 18 120 46 175 48 25 1 27 -1 18 -25z m-230 -200
l0 -46 -32 6 c-40 8 -81 34 -73 46 5 8 48 24 103 39 1 1 2 -20 2 -45z m60 -2
c0 -22 -20 -53 -31 -47 -11 7 -12 78 -2 89 9 9 33 -22 33 -42z m250 -131 c-5
-11 -10 -54 -10 -96 0 -88 4 -87 -105 -33 -118 59 -151 99 -100 118 29 11 133
27 188 29 34 1 37 -1 27 -18z m79 -23 c15 -43 14 -92 -3 -133 -28 -67 -76 -28
-76 63 0 100 52 147 79 70z"/>
<path d="M6365 3968 c-88 -10 -164 -23 -169 -29 -13 -12 3 -12 158 6 86 10
135 11 147 5 17 -9 24 -33 31 -100 l3 -25 -172 -5 c-94 -3 -175 -8 -179 -12
-18 -18 17 -23 181 -26 l173 -4 5 -41 c2 -23 -1 -53 -7 -67 l-12 -25 -137 2
c-75 2 -137 -1 -137 -6 0 -5 65 -14 145 -21 196 -17 195 -17 209 142 2 32 0
60 -5 63 -5 4 -9 25 -9 48 0 48 -28 111 -50 113 -8 1 -87 -7 -175 -18z m202
-81 c4 -37 2 -57 -5 -57 -5 0 -12 19 -15 43 -3 23 -8 56 -12 72 -7 28 -6 29 9
14 10 -9 19 -39 23 -72z m12 -178 c1 -24 -6 -45 -20 -60 -18 -21 -20 -21 -13
-4 4 11 10 47 12 80 3 43 7 54 13 40 4 -11 8 -36 8 -56z"/>
<path d="M5466 3694 c-61 -60 1 -163 73 -123 35 20 42 88 12 118 -25 25 -63
27 -85 5z m71 -12 c7 -4 15 -21 19 -38 4 -23 0 -34 -21 -54 -30 -28 -51 -21
-73 24 -12 23 -11 31 2 52 16 24 49 31 73 16z"/>
<path d="M2176 2340 c-50 -15 -86 -58 -86 -103 0 -56 51 -107 109 -107 52 0
84 15 104 50 34 57 11 131 -48 156 -38 16 -39 16 -79 4z m77 -21 c50 -23 64
-91 30 -137 -16 -21 -30 -28 -64 -30 -119 -7 -161 117 -56 163 39 17 59 18 90
4z"/>
<path d="M6350 849 c-80 -9 -106 -16 -97 -25 3 -3 59 0 126 7 100 10 123 9
137 -2 25 -20 35 -56 28 -100 l-7 -39 -156 -1 c-86 -1 -167 -4 -181 -8 -54
-15 9 -26 168 -29 l162 -4 0 -38 c0 -22 -5 -51 -12 -66 l-12 -27 -86 6 c-48 4
-120 9 -161 12 -132 11 -52 -11 109 -30 163 -18 197 -16 207 15 37 118 33 306
-8 332 -15 10 -119 8 -217 -3z m218 -34 c14 -31 15 -84 2 -105 -7 -11 -10 0
-10 38 0 29 -5 62 -10 73 -6 10 -7 19 -2 19 5 0 14 -11 20 -25z m2 -197 c0
-45 -19 -108 -32 -108 -6 0 -8 9 -3 23 3 12 9 43 12 70 6 53 23 64 23 15z"/>
<path d="M10865 3600 c413 -11 555 -28 555 -65 0 -19 -3 -19 -180 2 -208 23
-718 23 -933 -1 -88 -10 -161 -15 -164 -12 -3 3 -3 12 0 20 8 21 102 37 262
46 l140 7 -110 1 c-94 2 -207 -9 -342 -33 -26 -5 -44 -22 -93 -86 -33 -44 -58
-84 -55 -89 3 -5 0 -12 -6 -16 -8 -5 -9 -3 -4 7 19 30 -25 -14 -81 -82 l-56
-69 -179 0 c-170 0 -179 1 -179 19 0 35 -86 81 -150 81 -50 0 -78 -11 -118
-46 -36 -32 -38 -40 -16 -65 14 -16 11 -18 -41 -34 -31 -10 -69 -30 -84 -44
-63 -59 -109 -251 -121 -506 -5 -99 -14 -279 -21 -400 -14 -265 -6 -503 19
-577 24 -74 50 -87 209 -100 143 -11 361 -5 392 12 32 16 50 62 57 140 7 67 8
71 28 65 68 -19 163 -25 436 -25 l305 0 85 106 85 106 13 -33 c7 -17 11 -37 8
-45 -3 -7 -40 -39 -82 -71 -56 -42 -72 -59 -59 -61 9 -2 20 0 24 5 17 26 141
38 381 38 240 -1 281 -5 385 -39 14 -5 11 0 -9 16 -128 101 -131 104 -129 138
0 17 5 36 10 41 5 5 45 -38 91 -96 l82 -105 303 0 c274 0 360 5 438 25 26 6
26 6 32 -70 6 -80 21 -115 59 -137 28 -16 446 -15 506 1 81 22 114 98 111 260
-2 75 -2 75 -11 -31 -11 -139 -24 -176 -68 -202 -32 -19 -55 -21 -268 -24
-128 -2 -244 -1 -257 2 -34 9 -54 52 -63 141 l-8 76 40 21 c84 42 96 55 96
103 0 32 5 47 18 54 10 5 74 13 142 16 148 8 189 17 228 50 52 44 94 164 118
340 7 54 9 42 19 -120 7 -109 12 -152 13 -108 2 73 -25 625 -32 653 -2 8 -4
-41 -5 -109 l-1 -124 -92 6 -93 5 75 -13 75 -14 -75 5 c-52 4 -78 10 -83 21
-6 10 -22 14 -53 12 -24 -2 -46 -1 -49 2 -2 3 -14 52 -26 110 -11 57 -29 120
-40 139 l-20 35 25 -27 c15 -16 29 -50 35 -83 6 -30 16 -80 22 -111 6 -30 13
-54 15 -51 8 8 -34 205 -50 236 -10 18 -28 34 -44 38 -15 5 -681 8 -1481 8
-1118 0 -1455 -3 -1458 -12 -3 -7 -10 -10 -18 -7 -28 11 -51 -50 -80 -221 -4
-22 -4 -37 -1 -34 4 3 13 45 22 93 15 89 31 142 39 134 3 -2 0 -20 -5 -39 -6
-19 -17 -72 -25 -118 -16 -91 -27 -111 -58 -111 -11 0 -18 -3 -14 -6 11 -11
55 5 61 23 4 9 15 60 26 113 27 137 31 147 82 161 49 13 161 6 166 -10 2 -6 9
-11 15 -11 20 0 35 -44 24 -68 -14 -30 -48 -37 -86 -18 -22 12 -31 24 -31 42
0 14 4 22 10 19 9 -6 14 8 11 28 0 4 4 7 11 7 6 0 8 3 5 7 -4 3 -16 -2 -27
-12 -29 -26 -26 -71 6 -100 l27 -25 -29 0 c-68 0 -133 -76 -118 -138 18 -69
56 -91 208 -117 49 -8 90 -16 92 -17 4 -4 -58 -219 -97 -335 -27 -83 -51 -124
-64 -111 -3 3 4 46 16 96 20 86 20 93 5 117 -16 24 -20 25 -122 25 -161 0
-193 21 -219 148 -20 91 -20 162 0 162 9 0 12 6 9 15 -5 11 1 15 19 15 14 0
28 4 31 8 2 4 -41 2 -97 -5 -56 -7 -122 -12 -146 -13 l-44 0 7 128 c10 196 60
380 117 434 29 28 100 52 177 61 38 5 43 3 37 -11 -4 -10 -10 -38 -12 -64 -6
-56 8 -64 32 -17 21 39 12 51 -9 12 l-15 -28 0 25 c1 37 25 95 39 92 6 -1 9 2
5 8 -8 13 8 13 22 -1 8 -8 25 -8 63 0 32 7 154 10 323 9 l272 -2 -260 -6 -260
-6 265 2 c855 5 1263 3 1279 -6 10 -5 21 -7 24 -3 3 3 14 2 24 -2 10 -5 21 -9
25 -9 3 -1 10 -5 15 -10 5 -5 3 -6 -4 -2 -8 4 -13 2 -13 -6 0 -8 -5 -7 -17 5
-16 15 -18 15 -35 0 -12 -10 -18 -12 -18 -4 0 7 -4 9 -10 6 -6 -4 -7 1 -4 12
5 13 2 12 -10 -4 -17 -22 -22 -23 -199 -23 -165 0 -183 2 -194 18 -14 24 -110
31 -119 9 -7 -19 -135 -25 -714 -33 -245 -4 -447 -8 -449 -10 -2 -2 93 -4 212
-4 l217 0 24 -39 c14 -22 31 -43 37 -47 7 -4 5 3 -4 17 -9 13 -17 33 -17 45 0
18 8 22 53 28 81 9 587 7 587 -3 0 -5 15 -18 34 -29 18 -11 42 -34 52 -51 20
-34 44 -41 44 -14 0 14 2 15 13 4 10 -10 8 -15 -8 -28 -12 -9 -14 -13 -5 -11
9 3 19 -6 27 -24 10 -23 18 -28 45 -26 l33 1 -31 4 c-30 4 -51 32 -36 47 3 3
95 6 204 6 l199 0 -3 -22 c-2 -16 -12 -25 -33 -29 l-30 -7 33 -1 c21 -1 34 4
37 14 3 8 7 22 10 30 3 11 10 13 30 5 20 -8 29 -6 45 10 20 20 20 20 20 -20
l0 -40 355 0 355 0 1 -27 c0 -27 1 -27 13 7 11 30 18 36 52 41 l39 6 -35 2
c-20 0 -41 -4 -48 -11 -9 -9 -15 -9 -24 0 -9 9 -101 12 -354 12 -330 0 -342 1
-337 19 3 12 -5 28 -22 43 l-27 25 36 23 c20 12 43 29 51 37 13 12 61 14 320
11 332 -3 340 -5 315 -55 -23 -45 -23 -46 -11 -39 6 4 20 25 31 47 l20 39 218
2 217 2 -260 7 c-143 3 -401 7 -572 8 -299 2 -313 3 -323 21 -11 20 -3 20 522
22 293 1 552 1 576 0 23 -1 42 3 42 8 0 6 7 10 16 10 8 0 13 -4 10 -9 -3 -5 0
-11 8 -14 14 -6 42 -94 33 -104 -4 -3 -12 6 -18 21 -7 14 -16 26 -20 26 -5 0
1 -16 12 -35 34 -57 53 -18 28 54 -6 18 -10 34 -8 35 10 9 138 -17 176 -35 57
-27 85 -77 117 -204 14 -55 27 -109 30 -120 3 -11 3 3 1 31 -8 85 -61 236 -92
266 -32 29 -74 52 -117 62 -27 7 -28 8 -11 26 23 25 16 40 -33 74 -45 30 -101
42 -157 32 -38 -8 -105 -59 -105 -82 0 -11 -32 -14 -178 -14 l-179 0 -30 43
c-17 23 -54 67 -82 97 -28 30 -51 55 -51 56 0 1 -18 29 -40 62 -23 35 -51 64
-68 70 -74 28 -263 43 -597 47 l-340 3 320 -8z m-745 -175 c0 -149 0 -150 -70
-157 l-34 -3 3 45 c1 25 4 77 6 116 3 75 16 106 50 123 44 21 45 18 45 -124z
m1379 108 c29 -27 30 -32 36 -152 6 -109 5 -123 -8 -118 -9 3 -31 9 -51 12
l-35 7 -3 139 c-3 126 -1 139 14 139 10 0 31 -12 47 -27z m-309 -13 c80 -6
162 -13 183 -16 l39 -6 -4 -98 c-1 -54 -7 -102 -11 -106 -4 -4 -270 -10 -592
-14 -321 -3 -586 -7 -588 -10 -3 -3 248 -5 558 -5 438 0 567 -3 577 -12 10
-10 -104 -13 -570 -13 -459 0 -582 3 -583 13 0 10 -2 10 -6 0 -3 -9 -33 -13
-101 -12 l-97 1 60 13 c98 22 310 36 645 44 289 7 299 8 117 9 -157 2 -603
-13 -652 -21 -6 -1 -11 40 -13 105 l-3 107 33 6 c126 23 755 32 1008 15z
m-1187 -172 c-3 -46 -9 -87 -13 -92 -12 -13 -103 -27 -112 -18 -5 5 4 23 19
39 15 17 37 48 47 69 17 33 54 84 62 84 1 0 0 -37 -3 -82z m1607 10 c0 -4 14
-30 30 -56 17 -27 30 -54 30 -61 0 -14 -80 -4 -97 13 -6 6 -14 49 -18 96 l-7
85 31 -35 c16 -19 30 -38 31 -42z m11 25 c13 -16 12 -17 -3 -4 -10 7 -18 15
-18 17 0 8 8 3 21 -13z m-1695 -50 c-4 -9 -9 -13 -13 -9 -9 9 -35 -32 -28 -44
4 -6 2 -9 -3 -8 -5 2 -19 -8 -30 -22 -11 -14 -23 -22 -27 -18 -4 3 17 36 47
72 48 59 70 71 54 29z m1768 -40 c44 -56 54 -82 18 -50 -10 10 -22 14 -27 10
-4 -5 -5 -3 -1 4 7 14 -22 66 -33 59 -4 -3 -12 4 -19 15 -10 15 -10 19 2 19 8
0 35 -26 60 -57z m-2343 5 c50 -17 78 -38 73 -53 -7 -17 -73 -29 -103 -17 -17
6 -34 3 -58 -9 -38 -19 -80 -13 -97 13 -8 13 -4 22 15 41 34 35 111 46 170 25z
m3022 -20 c32 -30 28 -52 -14 -67 -21 -7 -38 -7 -57 1 -15 7 -54 12 -87 13
-80 1 -91 8 -65 45 23 32 48 39 135 36 49 -2 65 -7 88 -28z m-872 -23 l54 -13
-92 -1 c-64 -1 -93 3 -95 11 -3 7 -31 16 -64 19 -37 5 -22 6 42 3 55 -3 125
-11 155 -19z m-874 -31 c-3 -3 -12 -4 -19 -1 -8 3 -5 6 6 6 11 1 17 -2 13 -5z
m631 -1 c-64 -2 -172 -2 -240 0 -68 1 -15 3 117 3 132 0 187 -2 123 -3z m745
-10 c-83 -2 -223 -2 -310 0 -87 1 -18 3 152 3 171 0 242 -2 158 -3z m-1499
-37 c-3 -8 -12 -12 -20 -9 -21 8 -17 23 6 23 13 0 18 -5 14 -14z m51 -15 c-3
-3 -10 1 -15 9 -7 10 -10 -7 -12 -55 l-2 -70 -3 59 c-5 73 1 93 22 76 9 -7 13
-15 10 -19z m482 -83 c-2 -18 -4 -4 -4 32 0 36 2 50 4 33 2 -18 2 -48 0 -65z
m-537 38 l0 -28 -34 25 c-18 15 -36 23 -40 20 -3 -4 -6 -2 -6 4 0 6 17 10 40
10 37 -2 40 -4 40 -31z m489 28 c38 -8 42 -40 9 -84 l-22 -30 -195 0 c-186 0
-196 1 -218 22 -16 15 -23 33 -23 60 l0 38 209 0 c115 0 223 -3 240 -6z m111
-24 c-42 -36 -50 -37 -50 -6 0 25 1 25 75 34 6 1 -6 -12 -25 -28z m-55 -76 c8
11 15 13 20 7 10 -17 -4 -31 -30 -31 -27 0 -40 14 -29 31 4 8 10 6 17 -6 9
-17 11 -17 22 -1z m563 -71 c-81 -2 -216 -2 -300 0 -84 1 -18 3 147 3 165 0
234 -2 153 -3z m-1895 -142 c0 -18 -4 -48 -7 -66 l-6 -32 -83 -6 c-45 -3 -83
-4 -85 -2 -2 2 6 13 18 25 27 27 21 76 -13 103 -21 16 -19 17 78 15 l100 -3
-2 -34z m43 12 c-2 -16 -8 -49 -11 -75 -4 -34 -11 -48 -22 -48 -11 0 -14 6 -9
23 3 12 9 46 12 75 5 36 11 52 21 52 10 0 13 -8 9 -27z m1957 21 l75 -7 7 -54
c4 -30 4 -57 1 -60 -4 -5 -360 7 -649 22 -54 3 -96 1 -93 -3 3 -5 117 -12 253
-16 330 -9 493 -21 508 -38 7 -7 23 -60 34 -118 12 -58 24 -112 27 -121 3 -13
-23 -19 -168 -37 -350 -45 -675 -71 -716 -58 -29 10 -28 18 13 77 25 37 35 61
34 88 l-1 36 -7 -36 c-4 -20 -22 -59 -39 -86 -38 -59 -39 -69 -10 -84 36 -19
408 7 728 52 133 19 145 19 156 4 12 -17 58 -174 52 -180 -2 -2 -144 -7 -316
-11 l-312 -9 0 31 c0 18 -7 37 -17 45 -16 12 -17 12 -6 -2 11 -14 -37 -15
-488 -16 -275 -1 -497 2 -494 5 4 4 219 9 478 12 l472 5 -480 0 -480 0 -5 -39
-5 -38 -155 2 c-85 1 -227 5 -316 9 l-160 6 26 93 c15 51 29 94 31 97 3 2 74
-5 159 -15 413 -52 691 -71 728 -51 29 15 28 27 -5 69 -52 69 -69 175 -38 249
23 55 20 70 -16 75 -31 5 -337 -4 -611 -18 l-148 -7 0 30 c0 17 3 44 6 62 l6
31 282 3 c641 6 1588 7 1659 1z m118 -50 c4 -27 9 -60 13 -72 5 -16 3 -22 -8
-22 -15 0 -20 16 -31 104 -5 38 -4 47 7 44 7 -3 16 -27 19 -54z m184 31 c-14
-13 -25 -34 -25 -45 0 -26 17 -60 31 -60 5 0 3 13 -6 30 -13 24 -13 33 -3 50
7 11 18 20 25 20 6 0 13 6 16 13 2 7 18 -2 41 -25 21 -21 33 -38 27 -38 -6 0
-13 -11 -17 -25 -5 -19 -13 -25 -34 -25 -16 0 -30 -5 -32 -10 -2 -7 -34 -8
-91 -4 l-87 7 -10 36 c-5 20 -10 51 -10 69 l0 32 100 0 99 0 -24 -25z m231 4
c23 -19 34 -51 54 -163 20 -110 27 -120 91 -130 l41 -7 -7 -72 c-9 -106 -30
-168 -65 -202 -31 -29 -34 -30 -153 -33 -131 -4 -146 -10 -147 -62 0 -22 18
-103 36 -162 3 -12 0 -18 -10 -18 -8 0 -19 8 -25 18 -24 45 -136 420 -128 428
2 3 52 13 110 24 58 10 114 23 125 29 67 36 84 130 33 181 -18 18 -44 32 -68
36 l-40 6 23 24 c23 22 35 82 14 69 -5 -3 -7 0 -4 8 3 9 -5 22 -18 32 -22 16
-21 17 49 12 40 -2 80 -10 89 -18z m-2946 7 c0 -3 -4 -8 -10 -11 -5 -3 -10 -1
-10 4 0 6 5 11 10 11 6 0 10 -2 10 -4z m1240 -115 c0 -5 -7 -25 -15 -44 -17
-42 -20 -125 -5 -178 6 -20 23 -56 39 -80 46 -67 35 -73 -124 -65 -176 9 -741
70 -753 81 -6 5 48 238 58 250 6 8 35 17 63 20 163 19 737 32 737 16z m-853
-43 c-2 -7 -14 -56 -26 -108 -12 -52 -25 -101 -30 -109 -7 -11 -20 -11 -80 -1
-39 7 -71 14 -71 16 0 1 16 18 35 37 44 44 47 91 10 136 l-26 30 28 4 c15 2
59 5 97 6 51 1 67 -2 63 -11z m33 5 c-2 -32 -51 -228 -59 -236 -20 -20 -19 -2
5 98 13 55 26 110 29 123 5 20 26 32 25 15z m2164 -105 c30 -127 31 -141 14
-136 -7 3 -22 54 -35 114 -25 124 -26 134 -14 134 4 0 20 -51 35 -112z m158
79 c-44 -45 -45 -103 -2 -147 16 -16 35 -30 42 -31 7 0 -23 -7 -66 -15 -44 -8
-83 -11 -86 -7 -6 7 -32 105 -54 206 l-6 27 102 0 102 0 -32 -33z m-2579 16
c-7 -2 -21 -2 -30 0 -10 3 -4 5 12 5 17 0 24 -2 18 -5z m2695 -2 c8 -4 14 -12
14 -17 0 -5 6 -17 13 -27 10 -14 14 -15 18 -5 3 7 4 -10 2 -38 -3 -56 -11 -78
-26 -69 -5 4 -12 -1 -15 -9 -9 -22 -89 -9 -120 19 -20 18 -23 29 -18 56 7 37
40 79 61 79 8 0 11 5 8 10 -8 12 44 13 63 1z m-2635 -61 c18 -52 22 -73 8 -51
-7 10 -11 6 -16 -17 -3 -17 -14 -33 -23 -36 -45 -12 -92 -16 -92 -8 0 6 -11
13 -25 16 -15 4 -25 13 -25 24 0 15 2 15 10 2 13 -20 13 -4 0 20 -7 13 -5 30
9 62 l18 43 59 -3 60 -4 17 -48z m-162 19 c-5 -13 -10 -19 -10 -12 -1 15 10
45 15 40 3 -2 0 -15 -5 -28z m3049 -77 c0 -5 -13 -7 -30 -4 -16 2 -30 6 -30 8
0 2 14 4 30 4 17 0 30 -4 30 -8z m-3281 -6 c-2 -2 -38 -6 -79 -9 -46 -3 -63
-2 -45 3 30 8 132 13 124 6z m3511 -27 c0 -6 -4 -7 -10 -4 -5 3 -10 11 -10 16
0 6 5 7 10 4 6 -3 10 -11 10 -16z m-3520 -47 c0 -32 7 -85 15 -117 30 -117 71
-145 217 -145 53 0 103 -3 112 -6 23 -9 21 -71 -5 -166 l-21 -78 -32 5 c-17 3
-93 9 -169 15 -153 11 -176 19 -218 78 -44 62 -86 231 -90 362 -3 92 -5 87 64
98 34 5 77 10 95 11 l32 1 0 -58z m3477 39 c25 -7 28 -12 31 -56 4 -61 -21
-219 -48 -308 -22 -72 -67 -132 -109 -148 -20 -8 -114 -17 -325 -32 -29 -2
-30 -1 -54 96 -20 78 -22 103 -14 123 11 23 15 24 117 24 110 0 156 11 186 46
26 30 48 106 55 195 l7 81 63 -7 c35 -3 76 -10 91 -14z m-2927 -97 c0 -8 -12
-56 -26 -107 -24 -87 -45 -127 -67 -127 -5 0 -6 8 -2 18 3 9 18 58 32 107 14
50 30 98 35 108 11 21 28 22 28 1z m2281 -114 c21 -69 37 -125 36 -126 -1 -1
-12 6 -24 15 -22 18 -73 171 -73 219 0 54 26 8 61 -108z m-2996 -123 c20 -79
51 -133 97 -170 36 -29 42 -30 185 -39 183 -11 197 -15 189 -66 -8 -48 0 -58
70 -96 l59 -31 -3 -73 c-2 -73 -17 -117 -46 -141 -12 -10 -72 -12 -258 -9
-272 4 -291 8 -321 70 -36 73 -42 385 -16 778 1 8 7 -25 15 -74 7 -49 21 -116
29 -149z m2318 21 c3 -40 5 -48 11 -31 7 20 17 22 139 28 73 4 215 8 317 9
228 1 224 3 281 -135 21 -51 39 -95 39 -97 0 -2 -181 -2 -403 0 l-403 3 -50
51 c-53 55 -81 67 -209 95 l-80 17 167 1 c92 1 169 4 171 9 3 4 -198 6 -446 4
-249 -2 -466 0 -484 3 -35 6 -49 31 -39 71 l6 24 490 0 489 0 4 -52z m-1120
-5 c102 -5 117 -8 117 -23 0 -27 19 -30 188 -30 105 0 152 -4 142 -10 -8 -5
-25 -10 -36 -10 -12 0 -52 -9 -89 -21 -54 -17 -77 -31 -119 -72 l-51 -52 -402
-3 c-335 -3 -403 -1 -403 10 0 8 4 18 9 24 4 5 21 42 37 82 21 57 36 80 63 99
l36 25 195 -6 c107 -4 248 -9 313 -13z m825 -83 c117 -22 181 -47 217 -86 50
-54 22 -61 -38 -9 -42 37 -131 75 -172 75 -34 0 -49 -33 -41 -93 7 -65 40
-114 120 -180 36 -28 64 -53 63 -53 -1 -1 -33 4 -72 12 -100 19 -449 19 -552
-1 -43 -8 -80 -15 -82 -15 -2 0 14 13 35 29 116 84 177 185 157 261 -8 34 -10
35 -54 34 -53 -2 -120 -33 -165 -76 -19 -17 -40 -28 -50 -26 -16 3 -14 9 16
39 90 92 383 134 618 89z m-378 -51 c13 -24 4 -93 -13 -108 -7 -5 -24 -12 -38
-16 -20 -5 -27 -2 -37 19 -10 22 -18 25 -74 28 l-63 3 48 33 c86 60 158 77
177 41z m488 -13 c26 -13 56 -33 66 -45 l19 -21 -60 0 c-54 0 -61 -2 -71 -25
-10 -21 -16 -24 -39 -19 -16 4 -32 10 -36 14 -12 11 -20 76 -13 106 7 25 10
26 47 20 23 -4 62 -17 87 -30z m-601 -100 c-7 -18 -131 -179 -151 -195 -12
-10 -90 -12 -353 -9 l-338 3 -97 47 c-53 25 -101 54 -106 64 -9 18 -5 84 5 84
3 0 47 -38 98 -85 51 -47 95 -85 99 -85 3 0 -38 43 -91 95 l-98 94 519 1 c438
0 517 -2 513 -14z m1513 -86 c-58 -55 -102 -100 -98 -100 4 0 50 41 104 90
100 93 113 98 114 39 0 -32 -17 -47 -107 -93 -97 -50 -145 -56 -489 -56 l-290
0 -30 33 c-39 42 -144 174 -144 181 0 4 235 6 523 6 l522 -1 -105 -99z m-1420
62 c0 -5 -8 -17 -19 -26 -17 -16 -19 -16 -25 0 -4 10 -1 21 6 26 17 10 38 10
38 0z m439 -1 c9 -6 10 -14 4 -25 -8 -15 -12 -14 -33 9 -22 23 -22 25 -4 25
10 0 25 -4 33 -9z"/>
<path d="M11078 3293 c28 -2 76 -2 105 0 28 2 5 3 -53 3 -58 0 -81 -1 -52 -3z"/>
<path d="M10669 2813 c-154 -79 -182 -270 -57 -390 46 -44 96 -63 170 -63 74
0 133 25 179 77 44 51 61 96 60 165 -1 179 -190 292 -352 211z m217 -11 c81
-42 124 -113 124 -204 -1 -158 -150 -263 -311 -218 -45 13 -113 77 -135 127
-21 50 -21 141 1 187 23 48 96 111 143 125 51 14 132 7 178 -17z"/>
<path d="M10720 2788 c-84 -24 -144 -104 -143 -193 0 -57 18 -98 60 -136 102
-96 256 -71 320 52 43 80 26 167 -45 231 -58 53 -118 67 -192 46z m121 -13
c56 -20 78 -41 74 -70 -1 -14 2 -22 6 -19 20 12 7 -35 -13 -50 -13 -9 -17 -14
-9 -10 10 5 12 3 7 -5 -5 -7 -15 -10 -23 -7 -8 3 -11 1 -8 -4 3 -6 -3 -10 -15
-10 -12 0 -19 4 -15 9 3 6 -1 13 -8 18 -8 4 -20 19 -27 32 -11 21 -10 26 6 38
11 8 18 18 17 23 -2 8 47 -2 66 -14 5 -3 8 2 7 11 -4 28 -69 30 -95 4 -27 -27
-27 -78 -1 -106 l20 -22 -20 -18 c-45 -41 -14 -127 50 -137 22 -4 20 -5 -15
-16 -53 -16 -114 -15 -145 3 -23 13 -24 14 -4 15 12 0 33 9 47 20 22 18 26 27
23 63 -3 28 -10 46 -24 55 -20 13 -20 13 4 37 14 14 24 36 24 51 0 28 -34 74
-54 74 -7 0 -8 -3 -1 -8 14 -10 35 -49 35 -66 0 -8 -11 -23 -25 -34 -13 -11
-21 -23 -17 -27 4 -4 -4 -5 -18 -3 -14 1 -25 8 -26 13 0 6 -4 18 -9 28 -6 15
-10 16 -16 5 -6 -9 -9 -3 -9 18 0 30 20 59 33 49 4 -3 5 -2 2 2 -3 4 5 13 17
20 13 7 18 12 11 13 -18 0 -70 -47 -76 -69 -5 -22 27 -81 45 -81 6 0 2 -9 -10
-20 -12 -12 -22 -27 -22 -35 0 -7 -3 -21 -7 -31 -4 -12 -3 -15 5 -10 7 4 12
18 12 31 0 30 41 59 70 50 11 -3 18 -11 14 -16 -3 -5 0 -8 7 -7 8 2 15 -12 19
-34 4 -20 3 -35 -1 -33 -3 3 -12 -2 -19 -10 -15 -18 -51 -19 -70 -2 -12 10
-12 9 -1 -5 7 -9 25 -19 39 -21 26 -4 26 -4 -3 -5 -60 -2 -105 62 -105 149 0
88 41 144 128 175 49 17 71 17 123 -1z m129 -178 c0 -44 -20 -96 -44 -116 -10
-8 -34 -14 -54 -14 -32 1 -34 0 -12 -7 22 -7 22 -8 4 -9 -36 -2 -58 23 -59 69
-1 36 3 43 26 56 22 11 33 12 53 3 14 -7 23 -15 21 -20 -7 -10 5 -39 16 -39
16 0 9 37 -10 54 -18 17 -18 18 6 42 21 21 24 32 20 62 l-5 37 19 -40 c10 -22
19 -57 19 -78z m-315 33 c3 -5 1 -10 -4 -10 -6 0 -11 5 -11 10 0 6 2 10 4 10
3 0 8 -4 11 -10z m95 6 c0 -2 -8 -10 -17 -17 -16 -13 -17 -12 -4 4 13 16 21
21 21 13z m85 -24 c-3 -3 -11 0 -18 7 -9 10 -8 11 6 5 10 -3 15 -9 12 -12z
m-90 -142 c-3 -5 -11 -10 -16 -10 -6 0 -7 5 -4 10 3 6 11 10 16 10 6 0 7 -4 4
-10z"/>
<path d="M10825 2560 c-3 -6 1 -7 9 -4 18 7 21 14 7 14 -6 0 -13 -4 -16 -10z"/>
<path d="M10901 2487 c-13 -21 -12 -21 5 -5 10 10 16 20 13 22 -3 3 -11 -5
-18 -17z"/>
<path d="M11005 2750 c-3 -5 0 -20 6 -32 7 -13 16 -39 20 -58 7 -34 7 -34 7
-5 1 17 -5 41 -13 55 -9 18 -10 29 -3 37 7 9 7 13 0 13 -6 0 -14 -4 -17 -10z"/>
<path d="M12140 2476 c0 -2 9 -6 20 -9 11 -3 18 -1 14 4 -5 9 -34 13 -34 5z"/>
<path d="M12215 2466 c36 -16 50 -32 59 -68 8 -33 -15 -92 -41 -106 -21 -12
-102 -14 -84 -2 10 5 9 9 -3 13 -9 4 -25 21 -36 39 -11 18 -20 28 -20 21 0 -6
12 -25 26 -42 27 -32 19 -44 -9 -13 -20 22 -33 72 -18 72 6 0 11 6 11 14 0 8
15 27 33 42 28 23 29 26 8 19 -16 -5 -21 -4 -17 4 5 7 1 9 -9 5 -21 -8 -45
-56 -45 -89 0 -34 25 -82 49 -95 39 -20 98 -12 133 19 28 25 33 36 33 75 0 36
-6 51 -29 75 -17 17 -39 31 -50 31 -17 -1 -15 -3 9 -14z m-113 -45 c-9 -16
-18 -28 -21 -26 -4 5 27 55 34 55 2 0 -4 -13 -13 -29z"/>
<path d="M12236 2428 c10 -14 21 -24 23 -22 3 3 -6 15 -18 27 l-24 22 19 -27z"/>
<path d="M12140 2420 c-28 -28 -25 -64 6 -89 24 -19 28 -19 55 -5 16 8 29 20
29 26 0 6 -8 4 -18 -5 -35 -32 -82 -15 -82 28 0 25 29 55 53 55 9 0 23 -10 31
-22 9 -12 16 -18 16 -12 0 16 -34 44 -53 44 -9 0 -26 -9 -37 -20z"/>
<path d="M12244 2336 c-3 -9 -18 -23 -33 -31 -14 -8 -21 -14 -14 -15 17 0 69
47 61 56 -4 4 -10 -1 -14 -10z"/>
<path d="M12118 2683 c6 -2 18 -2 25 0 6 3 1 5 -13 5 -14 0 -19 -2 -12 -5z"/>
<path d="M12185 2559 c-4 -6 -5 -12 -2 -15 2 -3 7 2 10 11 7 17 1 20 -8 4z"/>
<path d="M10462 3048 c-7 -7 -12 -22 -12 -35 l0 -23 -338 0 c-231 0 -341 -3
-349 -11 -8 -8 -17 -8 -31 0 -13 7 -85 10 -199 9 l-178 -2 185 -6 185 -5 17
-35 c17 -35 17 -35 18 -7 l0 27 350 0 350 0 0 34 c0 19 5 38 10 41 6 3 10 2
10 -4 0 -6 9 -15 20 -21 14 -7 20 -7 20 0 0 5 -7 10 -15 10 -8 0 -15 9 -15 20
0 23 -10 26 -28 8z m-189 -75 c-83 -2 -223 -2 -310 0 -87 1 -18 3 152 3 171 0
242 -2 158 -3z"/>
<path d="M12108 2980 c182 -9 224 -19 240 -55 12 -26 45 -181 58 -268 3 -26 9
-46 11 -43 7 7 -27 209 -46 275 -25 84 -49 93 -260 97 l-166 2 163 -8z"/>
<path d="M9242 2965 c-21 -9 -38 -27 -47 -48 -16 -39 -65 -307 -56 -307 3 0
14 48 23 108 25 148 47 221 71 234 11 6 43 14 71 18 49 7 49 8 11 8 -22 1 -55
-5 -73 -13z"/>
<path d="M9317 2469 c-23 -13 -47 -62 -47 -94 0 -62 47 -105 114 -105 62 0
116 72 100 134 -11 45 -82 93 -98 67 -4 -5 4 -7 16 -4 13 3 19 1 13 -4 -6 -5
0 -18 18 -35 15 -15 27 -22 27 -16 0 6 3 9 6 6 3 -3 0 -25 -6 -47 -8 -30 -20
-48 -43 -61 -18 -11 -27 -20 -21 -20 6 0 23 9 38 21 14 11 26 16 26 10 0 -19
-44 -41 -83 -41 -52 0 -97 43 -97 93 0 38 30 84 64 97 12 5 15 9 6 9 -8 0 -23
-4 -33 -10z m133 -24 c20 -24 6 -28 -15 -5 -10 11 -13 20 -8 20 6 0 16 -7 23
-15z m27 -77 c-3 -8 -6 -5 -6 6 -1 11 2 17 5 13 3 -3 4 -12 1 -19z"/>
<path d="M9332 2453 c-7 -2 -17 -14 -23 -26 -11 -20 -10 -20 17 3 16 14 31 26
33 28 7 4 -14 1 -27 -5z"/>
<path d="M9342 2417 c-26 -28 -27 -45 -6 -75 20 -30 68 -30 88 0 22 31 20 52
-6 74 -23 19 -23 19 -5 -2 21 -26 22 -48 1 -68 -25 -25 -63 -20 -76 10 -14 30
-4 53 33 71 15 8 18 13 8 13 -8 0 -25 -10 -37 -23z"/>
<path d="M9290 2365 c0 -17 29 -54 53 -66 18 -9 18 -7 -4 13 -15 12 -32 32
-38 43 -6 11 -11 15 -11 10z"/>
<path d="M10588 1753 c90 -2 234 -2 320 0 86 1 13 3 -163 3 -176 0 -247 -2
-157 -3z"/>
</g>
</svg>
